G04 #@! TF.GenerationSoftware,KiCad,Pcbnew,(5.1.4)-1*
G04 #@! TF.CreationDate,2019-10-08T20:24:19-04:00*
G04 #@! TF.ProjectId,logic level shifter (bidirectional),6c6f6769-6320-46c6-9576-656c20736869,rev?*
G04 #@! TF.SameCoordinates,Original*
G04 #@! TF.FileFunction,Paste,Top*
G04 #@! TF.FilePolarity,Positive*
%FSLAX46Y46*%
G04 Gerber Fmt 4.6, Leading zero omitted, Abs format (unit mm)*
G04 Created by KiCad (PCBNEW (5.1.4)-1) date 2019-10-08 20:24:19*
%MOMM*%
%LPD*%
G04 APERTURE LIST*
%ADD10R,0.900000X0.800000*%
%ADD11C,0.100000*%
%ADD12C,0.950000*%
G04 APERTURE END LIST*
D10*
X113122200Y-72202000D03*
X113122200Y-74102000D03*
X115122200Y-73152000D03*
X115122200Y-76835000D03*
X113122200Y-77785000D03*
X113122200Y-75885000D03*
X113122200Y-79568000D03*
X113122200Y-81468000D03*
X115122200Y-80518000D03*
X115122200Y-84201000D03*
X113122200Y-85151000D03*
X113122200Y-83251000D03*
D11*
G36*
X111893779Y-71753144D02*
G01*
X111916834Y-71756563D01*
X111939443Y-71762227D01*
X111961387Y-71770079D01*
X111982457Y-71780044D01*
X112002448Y-71792026D01*
X112021168Y-71805910D01*
X112038438Y-71821562D01*
X112054090Y-71838832D01*
X112067974Y-71857552D01*
X112079956Y-71877543D01*
X112089921Y-71898613D01*
X112097773Y-71920557D01*
X112103437Y-71943166D01*
X112106856Y-71966221D01*
X112108000Y-71989500D01*
X112108000Y-72564500D01*
X112106856Y-72587779D01*
X112103437Y-72610834D01*
X112097773Y-72633443D01*
X112089921Y-72655387D01*
X112079956Y-72676457D01*
X112067974Y-72696448D01*
X112054090Y-72715168D01*
X112038438Y-72732438D01*
X112021168Y-72748090D01*
X112002448Y-72761974D01*
X111982457Y-72773956D01*
X111961387Y-72783921D01*
X111939443Y-72791773D01*
X111916834Y-72797437D01*
X111893779Y-72800856D01*
X111870500Y-72802000D01*
X111395500Y-72802000D01*
X111372221Y-72800856D01*
X111349166Y-72797437D01*
X111326557Y-72791773D01*
X111304613Y-72783921D01*
X111283543Y-72773956D01*
X111263552Y-72761974D01*
X111244832Y-72748090D01*
X111227562Y-72732438D01*
X111211910Y-72715168D01*
X111198026Y-72696448D01*
X111186044Y-72676457D01*
X111176079Y-72655387D01*
X111168227Y-72633443D01*
X111162563Y-72610834D01*
X111159144Y-72587779D01*
X111158000Y-72564500D01*
X111158000Y-71989500D01*
X111159144Y-71966221D01*
X111162563Y-71943166D01*
X111168227Y-71920557D01*
X111176079Y-71898613D01*
X111186044Y-71877543D01*
X111198026Y-71857552D01*
X111211910Y-71838832D01*
X111227562Y-71821562D01*
X111244832Y-71805910D01*
X111263552Y-71792026D01*
X111283543Y-71780044D01*
X111304613Y-71770079D01*
X111326557Y-71762227D01*
X111349166Y-71756563D01*
X111372221Y-71753144D01*
X111395500Y-71752000D01*
X111870500Y-71752000D01*
X111893779Y-71753144D01*
X111893779Y-71753144D01*
G37*
D12*
X111633000Y-72277000D03*
D11*
G36*
X111893779Y-73503144D02*
G01*
X111916834Y-73506563D01*
X111939443Y-73512227D01*
X111961387Y-73520079D01*
X111982457Y-73530044D01*
X112002448Y-73542026D01*
X112021168Y-73555910D01*
X112038438Y-73571562D01*
X112054090Y-73588832D01*
X112067974Y-73607552D01*
X112079956Y-73627543D01*
X112089921Y-73648613D01*
X112097773Y-73670557D01*
X112103437Y-73693166D01*
X112106856Y-73716221D01*
X112108000Y-73739500D01*
X112108000Y-74314500D01*
X112106856Y-74337779D01*
X112103437Y-74360834D01*
X112097773Y-74383443D01*
X112089921Y-74405387D01*
X112079956Y-74426457D01*
X112067974Y-74446448D01*
X112054090Y-74465168D01*
X112038438Y-74482438D01*
X112021168Y-74498090D01*
X112002448Y-74511974D01*
X111982457Y-74523956D01*
X111961387Y-74533921D01*
X111939443Y-74541773D01*
X111916834Y-74547437D01*
X111893779Y-74550856D01*
X111870500Y-74552000D01*
X111395500Y-74552000D01*
X111372221Y-74550856D01*
X111349166Y-74547437D01*
X111326557Y-74541773D01*
X111304613Y-74533921D01*
X111283543Y-74523956D01*
X111263552Y-74511974D01*
X111244832Y-74498090D01*
X111227562Y-74482438D01*
X111211910Y-74465168D01*
X111198026Y-74446448D01*
X111186044Y-74426457D01*
X111176079Y-74405387D01*
X111168227Y-74383443D01*
X111162563Y-74360834D01*
X111159144Y-74337779D01*
X111158000Y-74314500D01*
X111158000Y-73739500D01*
X111159144Y-73716221D01*
X111162563Y-73693166D01*
X111168227Y-73670557D01*
X111176079Y-73648613D01*
X111186044Y-73627543D01*
X111198026Y-73607552D01*
X111211910Y-73588832D01*
X111227562Y-73571562D01*
X111244832Y-73555910D01*
X111263552Y-73542026D01*
X111283543Y-73530044D01*
X111304613Y-73520079D01*
X111326557Y-73512227D01*
X111349166Y-73506563D01*
X111372221Y-73503144D01*
X111395500Y-73502000D01*
X111870500Y-73502000D01*
X111893779Y-73503144D01*
X111893779Y-73503144D01*
G37*
D12*
X111633000Y-74027000D03*
D11*
G36*
X116897579Y-71803944D02*
G01*
X116920634Y-71807363D01*
X116943243Y-71813027D01*
X116965187Y-71820879D01*
X116986257Y-71830844D01*
X117006248Y-71842826D01*
X117024968Y-71856710D01*
X117042238Y-71872362D01*
X117057890Y-71889632D01*
X117071774Y-71908352D01*
X117083756Y-71928343D01*
X117093721Y-71949413D01*
X117101573Y-71971357D01*
X117107237Y-71993966D01*
X117110656Y-72017021D01*
X117111800Y-72040300D01*
X117111800Y-72615300D01*
X117110656Y-72638579D01*
X117107237Y-72661634D01*
X117101573Y-72684243D01*
X117093721Y-72706187D01*
X117083756Y-72727257D01*
X117071774Y-72747248D01*
X117057890Y-72765968D01*
X117042238Y-72783238D01*
X117024968Y-72798890D01*
X117006248Y-72812774D01*
X116986257Y-72824756D01*
X116965187Y-72834721D01*
X116943243Y-72842573D01*
X116920634Y-72848237D01*
X116897579Y-72851656D01*
X116874300Y-72852800D01*
X116399300Y-72852800D01*
X116376021Y-72851656D01*
X116352966Y-72848237D01*
X116330357Y-72842573D01*
X116308413Y-72834721D01*
X116287343Y-72824756D01*
X116267352Y-72812774D01*
X116248632Y-72798890D01*
X116231362Y-72783238D01*
X116215710Y-72765968D01*
X116201826Y-72747248D01*
X116189844Y-72727257D01*
X116179879Y-72706187D01*
X116172027Y-72684243D01*
X116166363Y-72661634D01*
X116162944Y-72638579D01*
X116161800Y-72615300D01*
X116161800Y-72040300D01*
X116162944Y-72017021D01*
X116166363Y-71993966D01*
X116172027Y-71971357D01*
X116179879Y-71949413D01*
X116189844Y-71928343D01*
X116201826Y-71908352D01*
X116215710Y-71889632D01*
X116231362Y-71872362D01*
X116248632Y-71856710D01*
X116267352Y-71842826D01*
X116287343Y-71830844D01*
X116308413Y-71820879D01*
X116330357Y-71813027D01*
X116352966Y-71807363D01*
X116376021Y-71803944D01*
X116399300Y-71802800D01*
X116874300Y-71802800D01*
X116897579Y-71803944D01*
X116897579Y-71803944D01*
G37*
D12*
X116636800Y-72327800D03*
D11*
G36*
X116897579Y-73553944D02*
G01*
X116920634Y-73557363D01*
X116943243Y-73563027D01*
X116965187Y-73570879D01*
X116986257Y-73580844D01*
X117006248Y-73592826D01*
X117024968Y-73606710D01*
X117042238Y-73622362D01*
X117057890Y-73639632D01*
X117071774Y-73658352D01*
X117083756Y-73678343D01*
X117093721Y-73699413D01*
X117101573Y-73721357D01*
X117107237Y-73743966D01*
X117110656Y-73767021D01*
X117111800Y-73790300D01*
X117111800Y-74365300D01*
X117110656Y-74388579D01*
X117107237Y-74411634D01*
X117101573Y-74434243D01*
X117093721Y-74456187D01*
X117083756Y-74477257D01*
X117071774Y-74497248D01*
X117057890Y-74515968D01*
X117042238Y-74533238D01*
X117024968Y-74548890D01*
X117006248Y-74562774D01*
X116986257Y-74574756D01*
X116965187Y-74584721D01*
X116943243Y-74592573D01*
X116920634Y-74598237D01*
X116897579Y-74601656D01*
X116874300Y-74602800D01*
X116399300Y-74602800D01*
X116376021Y-74601656D01*
X116352966Y-74598237D01*
X116330357Y-74592573D01*
X116308413Y-74584721D01*
X116287343Y-74574756D01*
X116267352Y-74562774D01*
X116248632Y-74548890D01*
X116231362Y-74533238D01*
X116215710Y-74515968D01*
X116201826Y-74497248D01*
X116189844Y-74477257D01*
X116179879Y-74456187D01*
X116172027Y-74434243D01*
X116166363Y-74411634D01*
X116162944Y-74388579D01*
X116161800Y-74365300D01*
X116161800Y-73790300D01*
X116162944Y-73767021D01*
X116166363Y-73743966D01*
X116172027Y-73721357D01*
X116179879Y-73699413D01*
X116189844Y-73678343D01*
X116201826Y-73658352D01*
X116215710Y-73639632D01*
X116231362Y-73622362D01*
X116248632Y-73606710D01*
X116267352Y-73592826D01*
X116287343Y-73580844D01*
X116308413Y-73570879D01*
X116330357Y-73563027D01*
X116352966Y-73557363D01*
X116376021Y-73553944D01*
X116399300Y-73552800D01*
X116874300Y-73552800D01*
X116897579Y-73553944D01*
X116897579Y-73553944D01*
G37*
D12*
X116636800Y-74077800D03*
D11*
G36*
X111893779Y-75436144D02*
G01*
X111916834Y-75439563D01*
X111939443Y-75445227D01*
X111961387Y-75453079D01*
X111982457Y-75463044D01*
X112002448Y-75475026D01*
X112021168Y-75488910D01*
X112038438Y-75504562D01*
X112054090Y-75521832D01*
X112067974Y-75540552D01*
X112079956Y-75560543D01*
X112089921Y-75581613D01*
X112097773Y-75603557D01*
X112103437Y-75626166D01*
X112106856Y-75649221D01*
X112108000Y-75672500D01*
X112108000Y-76247500D01*
X112106856Y-76270779D01*
X112103437Y-76293834D01*
X112097773Y-76316443D01*
X112089921Y-76338387D01*
X112079956Y-76359457D01*
X112067974Y-76379448D01*
X112054090Y-76398168D01*
X112038438Y-76415438D01*
X112021168Y-76431090D01*
X112002448Y-76444974D01*
X111982457Y-76456956D01*
X111961387Y-76466921D01*
X111939443Y-76474773D01*
X111916834Y-76480437D01*
X111893779Y-76483856D01*
X111870500Y-76485000D01*
X111395500Y-76485000D01*
X111372221Y-76483856D01*
X111349166Y-76480437D01*
X111326557Y-76474773D01*
X111304613Y-76466921D01*
X111283543Y-76456956D01*
X111263552Y-76444974D01*
X111244832Y-76431090D01*
X111227562Y-76415438D01*
X111211910Y-76398168D01*
X111198026Y-76379448D01*
X111186044Y-76359457D01*
X111176079Y-76338387D01*
X111168227Y-76316443D01*
X111162563Y-76293834D01*
X111159144Y-76270779D01*
X111158000Y-76247500D01*
X111158000Y-75672500D01*
X111159144Y-75649221D01*
X111162563Y-75626166D01*
X111168227Y-75603557D01*
X111176079Y-75581613D01*
X111186044Y-75560543D01*
X111198026Y-75540552D01*
X111211910Y-75521832D01*
X111227562Y-75504562D01*
X111244832Y-75488910D01*
X111263552Y-75475026D01*
X111283543Y-75463044D01*
X111304613Y-75453079D01*
X111326557Y-75445227D01*
X111349166Y-75439563D01*
X111372221Y-75436144D01*
X111395500Y-75435000D01*
X111870500Y-75435000D01*
X111893779Y-75436144D01*
X111893779Y-75436144D01*
G37*
D12*
X111633000Y-75960000D03*
D11*
G36*
X111893779Y-77186144D02*
G01*
X111916834Y-77189563D01*
X111939443Y-77195227D01*
X111961387Y-77203079D01*
X111982457Y-77213044D01*
X112002448Y-77225026D01*
X112021168Y-77238910D01*
X112038438Y-77254562D01*
X112054090Y-77271832D01*
X112067974Y-77290552D01*
X112079956Y-77310543D01*
X112089921Y-77331613D01*
X112097773Y-77353557D01*
X112103437Y-77376166D01*
X112106856Y-77399221D01*
X112108000Y-77422500D01*
X112108000Y-77997500D01*
X112106856Y-78020779D01*
X112103437Y-78043834D01*
X112097773Y-78066443D01*
X112089921Y-78088387D01*
X112079956Y-78109457D01*
X112067974Y-78129448D01*
X112054090Y-78148168D01*
X112038438Y-78165438D01*
X112021168Y-78181090D01*
X112002448Y-78194974D01*
X111982457Y-78206956D01*
X111961387Y-78216921D01*
X111939443Y-78224773D01*
X111916834Y-78230437D01*
X111893779Y-78233856D01*
X111870500Y-78235000D01*
X111395500Y-78235000D01*
X111372221Y-78233856D01*
X111349166Y-78230437D01*
X111326557Y-78224773D01*
X111304613Y-78216921D01*
X111283543Y-78206956D01*
X111263552Y-78194974D01*
X111244832Y-78181090D01*
X111227562Y-78165438D01*
X111211910Y-78148168D01*
X111198026Y-78129448D01*
X111186044Y-78109457D01*
X111176079Y-78088387D01*
X111168227Y-78066443D01*
X111162563Y-78043834D01*
X111159144Y-78020779D01*
X111158000Y-77997500D01*
X111158000Y-77422500D01*
X111159144Y-77399221D01*
X111162563Y-77376166D01*
X111168227Y-77353557D01*
X111176079Y-77331613D01*
X111186044Y-77310543D01*
X111198026Y-77290552D01*
X111211910Y-77271832D01*
X111227562Y-77254562D01*
X111244832Y-77238910D01*
X111263552Y-77225026D01*
X111283543Y-77213044D01*
X111304613Y-77203079D01*
X111326557Y-77195227D01*
X111349166Y-77189563D01*
X111372221Y-77186144D01*
X111395500Y-77185000D01*
X111870500Y-77185000D01*
X111893779Y-77186144D01*
X111893779Y-77186144D01*
G37*
D12*
X111633000Y-77710000D03*
D11*
G36*
X116897579Y-77186144D02*
G01*
X116920634Y-77189563D01*
X116943243Y-77195227D01*
X116965187Y-77203079D01*
X116986257Y-77213044D01*
X117006248Y-77225026D01*
X117024968Y-77238910D01*
X117042238Y-77254562D01*
X117057890Y-77271832D01*
X117071774Y-77290552D01*
X117083756Y-77310543D01*
X117093721Y-77331613D01*
X117101573Y-77353557D01*
X117107237Y-77376166D01*
X117110656Y-77399221D01*
X117111800Y-77422500D01*
X117111800Y-77997500D01*
X117110656Y-78020779D01*
X117107237Y-78043834D01*
X117101573Y-78066443D01*
X117093721Y-78088387D01*
X117083756Y-78109457D01*
X117071774Y-78129448D01*
X117057890Y-78148168D01*
X117042238Y-78165438D01*
X117024968Y-78181090D01*
X117006248Y-78194974D01*
X116986257Y-78206956D01*
X116965187Y-78216921D01*
X116943243Y-78224773D01*
X116920634Y-78230437D01*
X116897579Y-78233856D01*
X116874300Y-78235000D01*
X116399300Y-78235000D01*
X116376021Y-78233856D01*
X116352966Y-78230437D01*
X116330357Y-78224773D01*
X116308413Y-78216921D01*
X116287343Y-78206956D01*
X116267352Y-78194974D01*
X116248632Y-78181090D01*
X116231362Y-78165438D01*
X116215710Y-78148168D01*
X116201826Y-78129448D01*
X116189844Y-78109457D01*
X116179879Y-78088387D01*
X116172027Y-78066443D01*
X116166363Y-78043834D01*
X116162944Y-78020779D01*
X116161800Y-77997500D01*
X116161800Y-77422500D01*
X116162944Y-77399221D01*
X116166363Y-77376166D01*
X116172027Y-77353557D01*
X116179879Y-77331613D01*
X116189844Y-77310543D01*
X116201826Y-77290552D01*
X116215710Y-77271832D01*
X116231362Y-77254562D01*
X116248632Y-77238910D01*
X116267352Y-77225026D01*
X116287343Y-77213044D01*
X116308413Y-77203079D01*
X116330357Y-77195227D01*
X116352966Y-77189563D01*
X116376021Y-77186144D01*
X116399300Y-77185000D01*
X116874300Y-77185000D01*
X116897579Y-77186144D01*
X116897579Y-77186144D01*
G37*
D12*
X116636800Y-77710000D03*
D11*
G36*
X116897579Y-75436144D02*
G01*
X116920634Y-75439563D01*
X116943243Y-75445227D01*
X116965187Y-75453079D01*
X116986257Y-75463044D01*
X117006248Y-75475026D01*
X117024968Y-75488910D01*
X117042238Y-75504562D01*
X117057890Y-75521832D01*
X117071774Y-75540552D01*
X117083756Y-75560543D01*
X117093721Y-75581613D01*
X117101573Y-75603557D01*
X117107237Y-75626166D01*
X117110656Y-75649221D01*
X117111800Y-75672500D01*
X117111800Y-76247500D01*
X117110656Y-76270779D01*
X117107237Y-76293834D01*
X117101573Y-76316443D01*
X117093721Y-76338387D01*
X117083756Y-76359457D01*
X117071774Y-76379448D01*
X117057890Y-76398168D01*
X117042238Y-76415438D01*
X117024968Y-76431090D01*
X117006248Y-76444974D01*
X116986257Y-76456956D01*
X116965187Y-76466921D01*
X116943243Y-76474773D01*
X116920634Y-76480437D01*
X116897579Y-76483856D01*
X116874300Y-76485000D01*
X116399300Y-76485000D01*
X116376021Y-76483856D01*
X116352966Y-76480437D01*
X116330357Y-76474773D01*
X116308413Y-76466921D01*
X116287343Y-76456956D01*
X116267352Y-76444974D01*
X116248632Y-76431090D01*
X116231362Y-76415438D01*
X116215710Y-76398168D01*
X116201826Y-76379448D01*
X116189844Y-76359457D01*
X116179879Y-76338387D01*
X116172027Y-76316443D01*
X116166363Y-76293834D01*
X116162944Y-76270779D01*
X116161800Y-76247500D01*
X116161800Y-75672500D01*
X116162944Y-75649221D01*
X116166363Y-75626166D01*
X116172027Y-75603557D01*
X116179879Y-75581613D01*
X116189844Y-75560543D01*
X116201826Y-75540552D01*
X116215710Y-75521832D01*
X116231362Y-75504562D01*
X116248632Y-75488910D01*
X116267352Y-75475026D01*
X116287343Y-75463044D01*
X116308413Y-75453079D01*
X116330357Y-75445227D01*
X116352966Y-75439563D01*
X116376021Y-75436144D01*
X116399300Y-75435000D01*
X116874300Y-75435000D01*
X116897579Y-75436144D01*
X116897579Y-75436144D01*
G37*
D12*
X116636800Y-75960000D03*
D11*
G36*
X111893779Y-79119144D02*
G01*
X111916834Y-79122563D01*
X111939443Y-79128227D01*
X111961387Y-79136079D01*
X111982457Y-79146044D01*
X112002448Y-79158026D01*
X112021168Y-79171910D01*
X112038438Y-79187562D01*
X112054090Y-79204832D01*
X112067974Y-79223552D01*
X112079956Y-79243543D01*
X112089921Y-79264613D01*
X112097773Y-79286557D01*
X112103437Y-79309166D01*
X112106856Y-79332221D01*
X112108000Y-79355500D01*
X112108000Y-79930500D01*
X112106856Y-79953779D01*
X112103437Y-79976834D01*
X112097773Y-79999443D01*
X112089921Y-80021387D01*
X112079956Y-80042457D01*
X112067974Y-80062448D01*
X112054090Y-80081168D01*
X112038438Y-80098438D01*
X112021168Y-80114090D01*
X112002448Y-80127974D01*
X111982457Y-80139956D01*
X111961387Y-80149921D01*
X111939443Y-80157773D01*
X111916834Y-80163437D01*
X111893779Y-80166856D01*
X111870500Y-80168000D01*
X111395500Y-80168000D01*
X111372221Y-80166856D01*
X111349166Y-80163437D01*
X111326557Y-80157773D01*
X111304613Y-80149921D01*
X111283543Y-80139956D01*
X111263552Y-80127974D01*
X111244832Y-80114090D01*
X111227562Y-80098438D01*
X111211910Y-80081168D01*
X111198026Y-80062448D01*
X111186044Y-80042457D01*
X111176079Y-80021387D01*
X111168227Y-79999443D01*
X111162563Y-79976834D01*
X111159144Y-79953779D01*
X111158000Y-79930500D01*
X111158000Y-79355500D01*
X111159144Y-79332221D01*
X111162563Y-79309166D01*
X111168227Y-79286557D01*
X111176079Y-79264613D01*
X111186044Y-79243543D01*
X111198026Y-79223552D01*
X111211910Y-79204832D01*
X111227562Y-79187562D01*
X111244832Y-79171910D01*
X111263552Y-79158026D01*
X111283543Y-79146044D01*
X111304613Y-79136079D01*
X111326557Y-79128227D01*
X111349166Y-79122563D01*
X111372221Y-79119144D01*
X111395500Y-79118000D01*
X111870500Y-79118000D01*
X111893779Y-79119144D01*
X111893779Y-79119144D01*
G37*
D12*
X111633000Y-79643000D03*
D11*
G36*
X111893779Y-80869144D02*
G01*
X111916834Y-80872563D01*
X111939443Y-80878227D01*
X111961387Y-80886079D01*
X111982457Y-80896044D01*
X112002448Y-80908026D01*
X112021168Y-80921910D01*
X112038438Y-80937562D01*
X112054090Y-80954832D01*
X112067974Y-80973552D01*
X112079956Y-80993543D01*
X112089921Y-81014613D01*
X112097773Y-81036557D01*
X112103437Y-81059166D01*
X112106856Y-81082221D01*
X112108000Y-81105500D01*
X112108000Y-81680500D01*
X112106856Y-81703779D01*
X112103437Y-81726834D01*
X112097773Y-81749443D01*
X112089921Y-81771387D01*
X112079956Y-81792457D01*
X112067974Y-81812448D01*
X112054090Y-81831168D01*
X112038438Y-81848438D01*
X112021168Y-81864090D01*
X112002448Y-81877974D01*
X111982457Y-81889956D01*
X111961387Y-81899921D01*
X111939443Y-81907773D01*
X111916834Y-81913437D01*
X111893779Y-81916856D01*
X111870500Y-81918000D01*
X111395500Y-81918000D01*
X111372221Y-81916856D01*
X111349166Y-81913437D01*
X111326557Y-81907773D01*
X111304613Y-81899921D01*
X111283543Y-81889956D01*
X111263552Y-81877974D01*
X111244832Y-81864090D01*
X111227562Y-81848438D01*
X111211910Y-81831168D01*
X111198026Y-81812448D01*
X111186044Y-81792457D01*
X111176079Y-81771387D01*
X111168227Y-81749443D01*
X111162563Y-81726834D01*
X111159144Y-81703779D01*
X111158000Y-81680500D01*
X111158000Y-81105500D01*
X111159144Y-81082221D01*
X111162563Y-81059166D01*
X111168227Y-81036557D01*
X111176079Y-81014613D01*
X111186044Y-80993543D01*
X111198026Y-80973552D01*
X111211910Y-80954832D01*
X111227562Y-80937562D01*
X111244832Y-80921910D01*
X111263552Y-80908026D01*
X111283543Y-80896044D01*
X111304613Y-80886079D01*
X111326557Y-80878227D01*
X111349166Y-80872563D01*
X111372221Y-80869144D01*
X111395500Y-80868000D01*
X111870500Y-80868000D01*
X111893779Y-80869144D01*
X111893779Y-80869144D01*
G37*
D12*
X111633000Y-81393000D03*
D11*
G36*
X116872179Y-80843744D02*
G01*
X116895234Y-80847163D01*
X116917843Y-80852827D01*
X116939787Y-80860679D01*
X116960857Y-80870644D01*
X116980848Y-80882626D01*
X116999568Y-80896510D01*
X117016838Y-80912162D01*
X117032490Y-80929432D01*
X117046374Y-80948152D01*
X117058356Y-80968143D01*
X117068321Y-80989213D01*
X117076173Y-81011157D01*
X117081837Y-81033766D01*
X117085256Y-81056821D01*
X117086400Y-81080100D01*
X117086400Y-81655100D01*
X117085256Y-81678379D01*
X117081837Y-81701434D01*
X117076173Y-81724043D01*
X117068321Y-81745987D01*
X117058356Y-81767057D01*
X117046374Y-81787048D01*
X117032490Y-81805768D01*
X117016838Y-81823038D01*
X116999568Y-81838690D01*
X116980848Y-81852574D01*
X116960857Y-81864556D01*
X116939787Y-81874521D01*
X116917843Y-81882373D01*
X116895234Y-81888037D01*
X116872179Y-81891456D01*
X116848900Y-81892600D01*
X116373900Y-81892600D01*
X116350621Y-81891456D01*
X116327566Y-81888037D01*
X116304957Y-81882373D01*
X116283013Y-81874521D01*
X116261943Y-81864556D01*
X116241952Y-81852574D01*
X116223232Y-81838690D01*
X116205962Y-81823038D01*
X116190310Y-81805768D01*
X116176426Y-81787048D01*
X116164444Y-81767057D01*
X116154479Y-81745987D01*
X116146627Y-81724043D01*
X116140963Y-81701434D01*
X116137544Y-81678379D01*
X116136400Y-81655100D01*
X116136400Y-81080100D01*
X116137544Y-81056821D01*
X116140963Y-81033766D01*
X116146627Y-81011157D01*
X116154479Y-80989213D01*
X116164444Y-80968143D01*
X116176426Y-80948152D01*
X116190310Y-80929432D01*
X116205962Y-80912162D01*
X116223232Y-80896510D01*
X116241952Y-80882626D01*
X116261943Y-80870644D01*
X116283013Y-80860679D01*
X116304957Y-80852827D01*
X116327566Y-80847163D01*
X116350621Y-80843744D01*
X116373900Y-80842600D01*
X116848900Y-80842600D01*
X116872179Y-80843744D01*
X116872179Y-80843744D01*
G37*
D12*
X116611400Y-81367600D03*
D11*
G36*
X116872179Y-79093744D02*
G01*
X116895234Y-79097163D01*
X116917843Y-79102827D01*
X116939787Y-79110679D01*
X116960857Y-79120644D01*
X116980848Y-79132626D01*
X116999568Y-79146510D01*
X117016838Y-79162162D01*
X117032490Y-79179432D01*
X117046374Y-79198152D01*
X117058356Y-79218143D01*
X117068321Y-79239213D01*
X117076173Y-79261157D01*
X117081837Y-79283766D01*
X117085256Y-79306821D01*
X117086400Y-79330100D01*
X117086400Y-79905100D01*
X117085256Y-79928379D01*
X117081837Y-79951434D01*
X117076173Y-79974043D01*
X117068321Y-79995987D01*
X117058356Y-80017057D01*
X117046374Y-80037048D01*
X117032490Y-80055768D01*
X117016838Y-80073038D01*
X116999568Y-80088690D01*
X116980848Y-80102574D01*
X116960857Y-80114556D01*
X116939787Y-80124521D01*
X116917843Y-80132373D01*
X116895234Y-80138037D01*
X116872179Y-80141456D01*
X116848900Y-80142600D01*
X116373900Y-80142600D01*
X116350621Y-80141456D01*
X116327566Y-80138037D01*
X116304957Y-80132373D01*
X116283013Y-80124521D01*
X116261943Y-80114556D01*
X116241952Y-80102574D01*
X116223232Y-80088690D01*
X116205962Y-80073038D01*
X116190310Y-80055768D01*
X116176426Y-80037048D01*
X116164444Y-80017057D01*
X116154479Y-79995987D01*
X116146627Y-79974043D01*
X116140963Y-79951434D01*
X116137544Y-79928379D01*
X116136400Y-79905100D01*
X116136400Y-79330100D01*
X116137544Y-79306821D01*
X116140963Y-79283766D01*
X116146627Y-79261157D01*
X116154479Y-79239213D01*
X116164444Y-79218143D01*
X116176426Y-79198152D01*
X116190310Y-79179432D01*
X116205962Y-79162162D01*
X116223232Y-79146510D01*
X116241952Y-79132626D01*
X116261943Y-79120644D01*
X116283013Y-79110679D01*
X116304957Y-79102827D01*
X116327566Y-79097163D01*
X116350621Y-79093744D01*
X116373900Y-79092600D01*
X116848900Y-79092600D01*
X116872179Y-79093744D01*
X116872179Y-79093744D01*
G37*
D12*
X116611400Y-79617600D03*
D11*
G36*
X111893779Y-82802144D02*
G01*
X111916834Y-82805563D01*
X111939443Y-82811227D01*
X111961387Y-82819079D01*
X111982457Y-82829044D01*
X112002448Y-82841026D01*
X112021168Y-82854910D01*
X112038438Y-82870562D01*
X112054090Y-82887832D01*
X112067974Y-82906552D01*
X112079956Y-82926543D01*
X112089921Y-82947613D01*
X112097773Y-82969557D01*
X112103437Y-82992166D01*
X112106856Y-83015221D01*
X112108000Y-83038500D01*
X112108000Y-83613500D01*
X112106856Y-83636779D01*
X112103437Y-83659834D01*
X112097773Y-83682443D01*
X112089921Y-83704387D01*
X112079956Y-83725457D01*
X112067974Y-83745448D01*
X112054090Y-83764168D01*
X112038438Y-83781438D01*
X112021168Y-83797090D01*
X112002448Y-83810974D01*
X111982457Y-83822956D01*
X111961387Y-83832921D01*
X111939443Y-83840773D01*
X111916834Y-83846437D01*
X111893779Y-83849856D01*
X111870500Y-83851000D01*
X111395500Y-83851000D01*
X111372221Y-83849856D01*
X111349166Y-83846437D01*
X111326557Y-83840773D01*
X111304613Y-83832921D01*
X111283543Y-83822956D01*
X111263552Y-83810974D01*
X111244832Y-83797090D01*
X111227562Y-83781438D01*
X111211910Y-83764168D01*
X111198026Y-83745448D01*
X111186044Y-83725457D01*
X111176079Y-83704387D01*
X111168227Y-83682443D01*
X111162563Y-83659834D01*
X111159144Y-83636779D01*
X111158000Y-83613500D01*
X111158000Y-83038500D01*
X111159144Y-83015221D01*
X111162563Y-82992166D01*
X111168227Y-82969557D01*
X111176079Y-82947613D01*
X111186044Y-82926543D01*
X111198026Y-82906552D01*
X111211910Y-82887832D01*
X111227562Y-82870562D01*
X111244832Y-82854910D01*
X111263552Y-82841026D01*
X111283543Y-82829044D01*
X111304613Y-82819079D01*
X111326557Y-82811227D01*
X111349166Y-82805563D01*
X111372221Y-82802144D01*
X111395500Y-82801000D01*
X111870500Y-82801000D01*
X111893779Y-82802144D01*
X111893779Y-82802144D01*
G37*
D12*
X111633000Y-83326000D03*
D11*
G36*
X111893779Y-84552144D02*
G01*
X111916834Y-84555563D01*
X111939443Y-84561227D01*
X111961387Y-84569079D01*
X111982457Y-84579044D01*
X112002448Y-84591026D01*
X112021168Y-84604910D01*
X112038438Y-84620562D01*
X112054090Y-84637832D01*
X112067974Y-84656552D01*
X112079956Y-84676543D01*
X112089921Y-84697613D01*
X112097773Y-84719557D01*
X112103437Y-84742166D01*
X112106856Y-84765221D01*
X112108000Y-84788500D01*
X112108000Y-85363500D01*
X112106856Y-85386779D01*
X112103437Y-85409834D01*
X112097773Y-85432443D01*
X112089921Y-85454387D01*
X112079956Y-85475457D01*
X112067974Y-85495448D01*
X112054090Y-85514168D01*
X112038438Y-85531438D01*
X112021168Y-85547090D01*
X112002448Y-85560974D01*
X111982457Y-85572956D01*
X111961387Y-85582921D01*
X111939443Y-85590773D01*
X111916834Y-85596437D01*
X111893779Y-85599856D01*
X111870500Y-85601000D01*
X111395500Y-85601000D01*
X111372221Y-85599856D01*
X111349166Y-85596437D01*
X111326557Y-85590773D01*
X111304613Y-85582921D01*
X111283543Y-85572956D01*
X111263552Y-85560974D01*
X111244832Y-85547090D01*
X111227562Y-85531438D01*
X111211910Y-85514168D01*
X111198026Y-85495448D01*
X111186044Y-85475457D01*
X111176079Y-85454387D01*
X111168227Y-85432443D01*
X111162563Y-85409834D01*
X111159144Y-85386779D01*
X111158000Y-85363500D01*
X111158000Y-84788500D01*
X111159144Y-84765221D01*
X111162563Y-84742166D01*
X111168227Y-84719557D01*
X111176079Y-84697613D01*
X111186044Y-84676543D01*
X111198026Y-84656552D01*
X111211910Y-84637832D01*
X111227562Y-84620562D01*
X111244832Y-84604910D01*
X111263552Y-84591026D01*
X111283543Y-84579044D01*
X111304613Y-84569079D01*
X111326557Y-84561227D01*
X111349166Y-84555563D01*
X111372221Y-84552144D01*
X111395500Y-84551000D01*
X111870500Y-84551000D01*
X111893779Y-84552144D01*
X111893779Y-84552144D01*
G37*
D12*
X111633000Y-85076000D03*
D11*
G36*
X116872179Y-82802144D02*
G01*
X116895234Y-82805563D01*
X116917843Y-82811227D01*
X116939787Y-82819079D01*
X116960857Y-82829044D01*
X116980848Y-82841026D01*
X116999568Y-82854910D01*
X117016838Y-82870562D01*
X117032490Y-82887832D01*
X117046374Y-82906552D01*
X117058356Y-82926543D01*
X117068321Y-82947613D01*
X117076173Y-82969557D01*
X117081837Y-82992166D01*
X117085256Y-83015221D01*
X117086400Y-83038500D01*
X117086400Y-83613500D01*
X117085256Y-83636779D01*
X117081837Y-83659834D01*
X117076173Y-83682443D01*
X117068321Y-83704387D01*
X117058356Y-83725457D01*
X117046374Y-83745448D01*
X117032490Y-83764168D01*
X117016838Y-83781438D01*
X116999568Y-83797090D01*
X116980848Y-83810974D01*
X116960857Y-83822956D01*
X116939787Y-83832921D01*
X116917843Y-83840773D01*
X116895234Y-83846437D01*
X116872179Y-83849856D01*
X116848900Y-83851000D01*
X116373900Y-83851000D01*
X116350621Y-83849856D01*
X116327566Y-83846437D01*
X116304957Y-83840773D01*
X116283013Y-83832921D01*
X116261943Y-83822956D01*
X116241952Y-83810974D01*
X116223232Y-83797090D01*
X116205962Y-83781438D01*
X116190310Y-83764168D01*
X116176426Y-83745448D01*
X116164444Y-83725457D01*
X116154479Y-83704387D01*
X116146627Y-83682443D01*
X116140963Y-83659834D01*
X116137544Y-83636779D01*
X116136400Y-83613500D01*
X116136400Y-83038500D01*
X116137544Y-83015221D01*
X116140963Y-82992166D01*
X116146627Y-82969557D01*
X116154479Y-82947613D01*
X116164444Y-82926543D01*
X116176426Y-82906552D01*
X116190310Y-82887832D01*
X116205962Y-82870562D01*
X116223232Y-82854910D01*
X116241952Y-82841026D01*
X116261943Y-82829044D01*
X116283013Y-82819079D01*
X116304957Y-82811227D01*
X116327566Y-82805563D01*
X116350621Y-82802144D01*
X116373900Y-82801000D01*
X116848900Y-82801000D01*
X116872179Y-82802144D01*
X116872179Y-82802144D01*
G37*
D12*
X116611400Y-83326000D03*
D11*
G36*
X116872179Y-84552144D02*
G01*
X116895234Y-84555563D01*
X116917843Y-84561227D01*
X116939787Y-84569079D01*
X116960857Y-84579044D01*
X116980848Y-84591026D01*
X116999568Y-84604910D01*
X117016838Y-84620562D01*
X117032490Y-84637832D01*
X117046374Y-84656552D01*
X117058356Y-84676543D01*
X117068321Y-84697613D01*
X117076173Y-84719557D01*
X117081837Y-84742166D01*
X117085256Y-84765221D01*
X117086400Y-84788500D01*
X117086400Y-85363500D01*
X117085256Y-85386779D01*
X117081837Y-85409834D01*
X117076173Y-85432443D01*
X117068321Y-85454387D01*
X117058356Y-85475457D01*
X117046374Y-85495448D01*
X117032490Y-85514168D01*
X117016838Y-85531438D01*
X116999568Y-85547090D01*
X116980848Y-85560974D01*
X116960857Y-85572956D01*
X116939787Y-85582921D01*
X116917843Y-85590773D01*
X116895234Y-85596437D01*
X116872179Y-85599856D01*
X116848900Y-85601000D01*
X116373900Y-85601000D01*
X116350621Y-85599856D01*
X116327566Y-85596437D01*
X116304957Y-85590773D01*
X116283013Y-85582921D01*
X116261943Y-85572956D01*
X116241952Y-85560974D01*
X116223232Y-85547090D01*
X116205962Y-85531438D01*
X116190310Y-85514168D01*
X116176426Y-85495448D01*
X116164444Y-85475457D01*
X116154479Y-85454387D01*
X116146627Y-85432443D01*
X116140963Y-85409834D01*
X116137544Y-85386779D01*
X116136400Y-85363500D01*
X116136400Y-84788500D01*
X116137544Y-84765221D01*
X116140963Y-84742166D01*
X116146627Y-84719557D01*
X116154479Y-84697613D01*
X116164444Y-84676543D01*
X116176426Y-84656552D01*
X116190310Y-84637832D01*
X116205962Y-84620562D01*
X116223232Y-84604910D01*
X116241952Y-84591026D01*
X116261943Y-84579044D01*
X116283013Y-84569079D01*
X116304957Y-84561227D01*
X116327566Y-84555563D01*
X116350621Y-84552144D01*
X116373900Y-84551000D01*
X116848900Y-84551000D01*
X116872179Y-84552144D01*
X116872179Y-84552144D01*
G37*
D12*
X116611400Y-85076000D03*
M02*
