G04 #@! TF.GenerationSoftware,KiCad,Pcbnew,(5.1.4)-1*
G04 #@! TF.CreationDate,2019-10-08T20:24:19-04:00*
G04 #@! TF.ProjectId,logic level shifter (bidirectional),6c6f6769-6320-46c6-9576-656c20736869,rev?*
G04 #@! TF.SameCoordinates,Original*
G04 #@! TF.FileFunction,Soldermask,Top*
G04 #@! TF.FilePolarity,Negative*
%FSLAX46Y46*%
G04 Gerber Fmt 4.6, Leading zero omitted, Abs format (unit mm)*
G04 Created by KiCad (PCBNEW (5.1.4)-1) date 2019-10-08 20:24:19*
%MOMM*%
%LPD*%
G04 APERTURE LIST*
%ADD10C,0.100000*%
G04 APERTURE END LIST*
D10*
G36*
X116975899Y-84504445D02*
G01*
X117013395Y-84515820D01*
X117047954Y-84534292D01*
X117078247Y-84559153D01*
X117103108Y-84589446D01*
X117121580Y-84624005D01*
X117132955Y-84661501D01*
X117137400Y-84706638D01*
X117137400Y-85445362D01*
X117132955Y-85490499D01*
X117121580Y-85527995D01*
X117103108Y-85562554D01*
X117078247Y-85592847D01*
X117047954Y-85617708D01*
X117013395Y-85636180D01*
X116975899Y-85647555D01*
X116930762Y-85652000D01*
X116292038Y-85652000D01*
X116246901Y-85647555D01*
X116209405Y-85636180D01*
X116174846Y-85617708D01*
X116144553Y-85592847D01*
X116119692Y-85562554D01*
X116101220Y-85527995D01*
X116089845Y-85490499D01*
X116085400Y-85445362D01*
X116085400Y-84706638D01*
X116089845Y-84661501D01*
X116101220Y-84624005D01*
X116119692Y-84589446D01*
X116144553Y-84559153D01*
X116174846Y-84534292D01*
X116209405Y-84515820D01*
X116246901Y-84504445D01*
X116292038Y-84500000D01*
X116930762Y-84500000D01*
X116975899Y-84504445D01*
X116975899Y-84504445D01*
G37*
G36*
X111997499Y-84504445D02*
G01*
X112034995Y-84515820D01*
X112069554Y-84534292D01*
X112099847Y-84559153D01*
X112124708Y-84589446D01*
X112143180Y-84624005D01*
X112154555Y-84661501D01*
X112159000Y-84706638D01*
X112159000Y-85445362D01*
X112154555Y-85490499D01*
X112143180Y-85527995D01*
X112124708Y-85562554D01*
X112099847Y-85592847D01*
X112069554Y-85617708D01*
X112034995Y-85636180D01*
X111997499Y-85647555D01*
X111952362Y-85652000D01*
X111313638Y-85652000D01*
X111268501Y-85647555D01*
X111231005Y-85636180D01*
X111196446Y-85617708D01*
X111166153Y-85592847D01*
X111141292Y-85562554D01*
X111122820Y-85527995D01*
X111111445Y-85490499D01*
X111107000Y-85445362D01*
X111107000Y-84706638D01*
X111111445Y-84661501D01*
X111122820Y-84624005D01*
X111141292Y-84589446D01*
X111166153Y-84559153D01*
X111196446Y-84534292D01*
X111231005Y-84515820D01*
X111268501Y-84504445D01*
X111313638Y-84500000D01*
X111952362Y-84500000D01*
X111997499Y-84504445D01*
X111997499Y-84504445D01*
G37*
G36*
X113623200Y-85602000D02*
G01*
X112621200Y-85602000D01*
X112621200Y-84700000D01*
X113623200Y-84700000D01*
X113623200Y-85602000D01*
X113623200Y-85602000D01*
G37*
G36*
X119363442Y-83763718D02*
G01*
X119429627Y-83770237D01*
X119599466Y-83821757D01*
X119755991Y-83905422D01*
X119791729Y-83934752D01*
X119893186Y-84018014D01*
X119976448Y-84119471D01*
X120005778Y-84155209D01*
X120089443Y-84311734D01*
X120140963Y-84481573D01*
X120158359Y-84658200D01*
X120140963Y-84834827D01*
X120089443Y-85004666D01*
X120005778Y-85161191D01*
X119976448Y-85196929D01*
X119893186Y-85298386D01*
X119791729Y-85381648D01*
X119755991Y-85410978D01*
X119599466Y-85494643D01*
X119429627Y-85546163D01*
X119363443Y-85552681D01*
X119297260Y-85559200D01*
X119208740Y-85559200D01*
X119142557Y-85552681D01*
X119076373Y-85546163D01*
X118906534Y-85494643D01*
X118750009Y-85410978D01*
X118714271Y-85381648D01*
X118612814Y-85298386D01*
X118529552Y-85196929D01*
X118500222Y-85161191D01*
X118416557Y-85004666D01*
X118365037Y-84834827D01*
X118347641Y-84658200D01*
X118365037Y-84481573D01*
X118416557Y-84311734D01*
X118500222Y-84155209D01*
X118529552Y-84119471D01*
X118612814Y-84018014D01*
X118714271Y-83934752D01*
X118750009Y-83905422D01*
X118906534Y-83821757D01*
X119076373Y-83770237D01*
X119142558Y-83763718D01*
X119208740Y-83757200D01*
X119297260Y-83757200D01*
X119363442Y-83763718D01*
X119363442Y-83763718D01*
G37*
G36*
X109203442Y-83763718D02*
G01*
X109269627Y-83770237D01*
X109439466Y-83821757D01*
X109595991Y-83905422D01*
X109631729Y-83934752D01*
X109733186Y-84018014D01*
X109816448Y-84119471D01*
X109845778Y-84155209D01*
X109929443Y-84311734D01*
X109980963Y-84481573D01*
X109998359Y-84658200D01*
X109980963Y-84834827D01*
X109929443Y-85004666D01*
X109845778Y-85161191D01*
X109816448Y-85196929D01*
X109733186Y-85298386D01*
X109631729Y-85381648D01*
X109595991Y-85410978D01*
X109439466Y-85494643D01*
X109269627Y-85546163D01*
X109203443Y-85552681D01*
X109137260Y-85559200D01*
X109048740Y-85559200D01*
X108982557Y-85552681D01*
X108916373Y-85546163D01*
X108746534Y-85494643D01*
X108590009Y-85410978D01*
X108554271Y-85381648D01*
X108452814Y-85298386D01*
X108369552Y-85196929D01*
X108340222Y-85161191D01*
X108256557Y-85004666D01*
X108205037Y-84834827D01*
X108187641Y-84658200D01*
X108205037Y-84481573D01*
X108256557Y-84311734D01*
X108340222Y-84155209D01*
X108369552Y-84119471D01*
X108452814Y-84018014D01*
X108554271Y-83934752D01*
X108590009Y-83905422D01*
X108746534Y-83821757D01*
X108916373Y-83770237D01*
X108982558Y-83763718D01*
X109048740Y-83757200D01*
X109137260Y-83757200D01*
X109203442Y-83763718D01*
X109203442Y-83763718D01*
G37*
G36*
X115623200Y-84652000D02*
G01*
X114621200Y-84652000D01*
X114621200Y-83750000D01*
X115623200Y-83750000D01*
X115623200Y-84652000D01*
X115623200Y-84652000D01*
G37*
G36*
X116975899Y-82754445D02*
G01*
X117013395Y-82765820D01*
X117047954Y-82784292D01*
X117078247Y-82809153D01*
X117103108Y-82839446D01*
X117121580Y-82874005D01*
X117132955Y-82911501D01*
X117137400Y-82956638D01*
X117137400Y-83695362D01*
X117132955Y-83740499D01*
X117121580Y-83777995D01*
X117103108Y-83812554D01*
X117078247Y-83842847D01*
X117047954Y-83867708D01*
X117013395Y-83886180D01*
X116975899Y-83897555D01*
X116930762Y-83902000D01*
X116292038Y-83902000D01*
X116246901Y-83897555D01*
X116209405Y-83886180D01*
X116174846Y-83867708D01*
X116144553Y-83842847D01*
X116119692Y-83812554D01*
X116101220Y-83777995D01*
X116089845Y-83740499D01*
X116085400Y-83695362D01*
X116085400Y-82956638D01*
X116089845Y-82911501D01*
X116101220Y-82874005D01*
X116119692Y-82839446D01*
X116144553Y-82809153D01*
X116174846Y-82784292D01*
X116209405Y-82765820D01*
X116246901Y-82754445D01*
X116292038Y-82750000D01*
X116930762Y-82750000D01*
X116975899Y-82754445D01*
X116975899Y-82754445D01*
G37*
G36*
X111997499Y-82754445D02*
G01*
X112034995Y-82765820D01*
X112069554Y-82784292D01*
X112099847Y-82809153D01*
X112124708Y-82839446D01*
X112143180Y-82874005D01*
X112154555Y-82911501D01*
X112159000Y-82956638D01*
X112159000Y-83695362D01*
X112154555Y-83740499D01*
X112143180Y-83777995D01*
X112124708Y-83812554D01*
X112099847Y-83842847D01*
X112069554Y-83867708D01*
X112034995Y-83886180D01*
X111997499Y-83897555D01*
X111952362Y-83902000D01*
X111313638Y-83902000D01*
X111268501Y-83897555D01*
X111231005Y-83886180D01*
X111196446Y-83867708D01*
X111166153Y-83842847D01*
X111141292Y-83812554D01*
X111122820Y-83777995D01*
X111111445Y-83740499D01*
X111107000Y-83695362D01*
X111107000Y-82956638D01*
X111111445Y-82911501D01*
X111122820Y-82874005D01*
X111141292Y-82839446D01*
X111166153Y-82809153D01*
X111196446Y-82784292D01*
X111231005Y-82765820D01*
X111268501Y-82754445D01*
X111313638Y-82750000D01*
X111952362Y-82750000D01*
X111997499Y-82754445D01*
X111997499Y-82754445D01*
G37*
G36*
X113623200Y-83702000D02*
G01*
X112621200Y-83702000D01*
X112621200Y-82800000D01*
X113623200Y-82800000D01*
X113623200Y-83702000D01*
X113623200Y-83702000D01*
G37*
G36*
X119363442Y-81223718D02*
G01*
X119429627Y-81230237D01*
X119599466Y-81281757D01*
X119755991Y-81365422D01*
X119791729Y-81394752D01*
X119893186Y-81478014D01*
X119976448Y-81579471D01*
X120005778Y-81615209D01*
X120089443Y-81771734D01*
X120140963Y-81941573D01*
X120158359Y-82118200D01*
X120140963Y-82294827D01*
X120089443Y-82464666D01*
X120005778Y-82621191D01*
X119976448Y-82656929D01*
X119893186Y-82758386D01*
X119794413Y-82839446D01*
X119755991Y-82870978D01*
X119599466Y-82954643D01*
X119429627Y-83006163D01*
X119363442Y-83012682D01*
X119297260Y-83019200D01*
X119208740Y-83019200D01*
X119142558Y-83012682D01*
X119076373Y-83006163D01*
X118906534Y-82954643D01*
X118750009Y-82870978D01*
X118711587Y-82839446D01*
X118612814Y-82758386D01*
X118529552Y-82656929D01*
X118500222Y-82621191D01*
X118416557Y-82464666D01*
X118365037Y-82294827D01*
X118347641Y-82118200D01*
X118365037Y-81941573D01*
X118416557Y-81771734D01*
X118500222Y-81615209D01*
X118529552Y-81579471D01*
X118612814Y-81478014D01*
X118714271Y-81394752D01*
X118750009Y-81365422D01*
X118906534Y-81281757D01*
X119076373Y-81230237D01*
X119142558Y-81223718D01*
X119208740Y-81217200D01*
X119297260Y-81217200D01*
X119363442Y-81223718D01*
X119363442Y-81223718D01*
G37*
G36*
X109203442Y-81223718D02*
G01*
X109269627Y-81230237D01*
X109439466Y-81281757D01*
X109595991Y-81365422D01*
X109631729Y-81394752D01*
X109733186Y-81478014D01*
X109816448Y-81579471D01*
X109845778Y-81615209D01*
X109929443Y-81771734D01*
X109980963Y-81941573D01*
X109998359Y-82118200D01*
X109980963Y-82294827D01*
X109929443Y-82464666D01*
X109845778Y-82621191D01*
X109816448Y-82656929D01*
X109733186Y-82758386D01*
X109634413Y-82839446D01*
X109595991Y-82870978D01*
X109439466Y-82954643D01*
X109269627Y-83006163D01*
X109203442Y-83012682D01*
X109137260Y-83019200D01*
X109048740Y-83019200D01*
X108982558Y-83012682D01*
X108916373Y-83006163D01*
X108746534Y-82954643D01*
X108590009Y-82870978D01*
X108551587Y-82839446D01*
X108452814Y-82758386D01*
X108369552Y-82656929D01*
X108340222Y-82621191D01*
X108256557Y-82464666D01*
X108205037Y-82294827D01*
X108187641Y-82118200D01*
X108205037Y-81941573D01*
X108256557Y-81771734D01*
X108340222Y-81615209D01*
X108369552Y-81579471D01*
X108452814Y-81478014D01*
X108554271Y-81394752D01*
X108590009Y-81365422D01*
X108746534Y-81281757D01*
X108916373Y-81230237D01*
X108982558Y-81223718D01*
X109048740Y-81217200D01*
X109137260Y-81217200D01*
X109203442Y-81223718D01*
X109203442Y-81223718D01*
G37*
G36*
X111997499Y-80821445D02*
G01*
X112034995Y-80832820D01*
X112069554Y-80851292D01*
X112099847Y-80876153D01*
X112124708Y-80906446D01*
X112143180Y-80941005D01*
X112154555Y-80978501D01*
X112159000Y-81023638D01*
X112159000Y-81762362D01*
X112154555Y-81807499D01*
X112143180Y-81844995D01*
X112124708Y-81879554D01*
X112099847Y-81909847D01*
X112069554Y-81934708D01*
X112034995Y-81953180D01*
X111997499Y-81964555D01*
X111952362Y-81969000D01*
X111313638Y-81969000D01*
X111268501Y-81964555D01*
X111231005Y-81953180D01*
X111196446Y-81934708D01*
X111166153Y-81909847D01*
X111141292Y-81879554D01*
X111122820Y-81844995D01*
X111111445Y-81807499D01*
X111107000Y-81762362D01*
X111107000Y-81023638D01*
X111111445Y-80978501D01*
X111122820Y-80941005D01*
X111141292Y-80906446D01*
X111166153Y-80876153D01*
X111196446Y-80851292D01*
X111231005Y-80832820D01*
X111268501Y-80821445D01*
X111313638Y-80817000D01*
X111952362Y-80817000D01*
X111997499Y-80821445D01*
X111997499Y-80821445D01*
G37*
G36*
X116975899Y-80796045D02*
G01*
X117013395Y-80807420D01*
X117047954Y-80825892D01*
X117078247Y-80850753D01*
X117103108Y-80881046D01*
X117121580Y-80915605D01*
X117132955Y-80953101D01*
X117137400Y-80998238D01*
X117137400Y-81736962D01*
X117132955Y-81782099D01*
X117121580Y-81819595D01*
X117103108Y-81854154D01*
X117078247Y-81884447D01*
X117047954Y-81909308D01*
X117013395Y-81927780D01*
X116975899Y-81939155D01*
X116930762Y-81943600D01*
X116292038Y-81943600D01*
X116246901Y-81939155D01*
X116209405Y-81927780D01*
X116174846Y-81909308D01*
X116144553Y-81884447D01*
X116119692Y-81854154D01*
X116101220Y-81819595D01*
X116089845Y-81782099D01*
X116085400Y-81736962D01*
X116085400Y-80998238D01*
X116089845Y-80953101D01*
X116101220Y-80915605D01*
X116119692Y-80881046D01*
X116144553Y-80850753D01*
X116174846Y-80825892D01*
X116209405Y-80807420D01*
X116246901Y-80796045D01*
X116292038Y-80791600D01*
X116930762Y-80791600D01*
X116975899Y-80796045D01*
X116975899Y-80796045D01*
G37*
G36*
X113623200Y-81919000D02*
G01*
X112621200Y-81919000D01*
X112621200Y-81017000D01*
X113623200Y-81017000D01*
X113623200Y-81919000D01*
X113623200Y-81919000D01*
G37*
G36*
X115623200Y-80969000D02*
G01*
X114621200Y-80969000D01*
X114621200Y-80067000D01*
X115623200Y-80067000D01*
X115623200Y-80969000D01*
X115623200Y-80969000D01*
G37*
G36*
X109203442Y-78683718D02*
G01*
X109269627Y-78690237D01*
X109439466Y-78741757D01*
X109595991Y-78825422D01*
X109631729Y-78854752D01*
X109733186Y-78938014D01*
X109816448Y-79039471D01*
X109845778Y-79075209D01*
X109929443Y-79231734D01*
X109980963Y-79401573D01*
X109998359Y-79578200D01*
X109980963Y-79754827D01*
X109929443Y-79924666D01*
X109929442Y-79924668D01*
X109898846Y-79981909D01*
X109845778Y-80081191D01*
X109816744Y-80116569D01*
X109733186Y-80218386D01*
X109631729Y-80301648D01*
X109595991Y-80330978D01*
X109439466Y-80414643D01*
X109269627Y-80466163D01*
X109203442Y-80472682D01*
X109137260Y-80479200D01*
X109048740Y-80479200D01*
X108982558Y-80472682D01*
X108916373Y-80466163D01*
X108746534Y-80414643D01*
X108590009Y-80330978D01*
X108554271Y-80301648D01*
X108452814Y-80218386D01*
X108369256Y-80116569D01*
X108340222Y-80081191D01*
X108287154Y-79981909D01*
X108256558Y-79924668D01*
X108256557Y-79924666D01*
X108205037Y-79754827D01*
X108187641Y-79578200D01*
X108205037Y-79401573D01*
X108256557Y-79231734D01*
X108340222Y-79075209D01*
X108369552Y-79039471D01*
X108452814Y-78938014D01*
X108554271Y-78854752D01*
X108590009Y-78825422D01*
X108746534Y-78741757D01*
X108916373Y-78690237D01*
X108982558Y-78683718D01*
X109048740Y-78677200D01*
X109137260Y-78677200D01*
X109203442Y-78683718D01*
X109203442Y-78683718D01*
G37*
G36*
X119363442Y-78683718D02*
G01*
X119429627Y-78690237D01*
X119599466Y-78741757D01*
X119755991Y-78825422D01*
X119791729Y-78854752D01*
X119893186Y-78938014D01*
X119976448Y-79039471D01*
X120005778Y-79075209D01*
X120089443Y-79231734D01*
X120140963Y-79401573D01*
X120158359Y-79578200D01*
X120140963Y-79754827D01*
X120089443Y-79924666D01*
X120089442Y-79924668D01*
X120058846Y-79981909D01*
X120005778Y-80081191D01*
X119976744Y-80116569D01*
X119893186Y-80218386D01*
X119791729Y-80301648D01*
X119755991Y-80330978D01*
X119599466Y-80414643D01*
X119429627Y-80466163D01*
X119363442Y-80472682D01*
X119297260Y-80479200D01*
X119208740Y-80479200D01*
X119142558Y-80472682D01*
X119076373Y-80466163D01*
X118906534Y-80414643D01*
X118750009Y-80330978D01*
X118714271Y-80301648D01*
X118612814Y-80218386D01*
X118529256Y-80116569D01*
X118500222Y-80081191D01*
X118447154Y-79981909D01*
X118416558Y-79924668D01*
X118416557Y-79924666D01*
X118365037Y-79754827D01*
X118347641Y-79578200D01*
X118365037Y-79401573D01*
X118416557Y-79231734D01*
X118500222Y-79075209D01*
X118529552Y-79039471D01*
X118612814Y-78938014D01*
X118714271Y-78854752D01*
X118750009Y-78825422D01*
X118906534Y-78741757D01*
X119076373Y-78690237D01*
X119142558Y-78683718D01*
X119208740Y-78677200D01*
X119297260Y-78677200D01*
X119363442Y-78683718D01*
X119363442Y-78683718D01*
G37*
G36*
X111997499Y-79071445D02*
G01*
X112034995Y-79082820D01*
X112069554Y-79101292D01*
X112099847Y-79126153D01*
X112124708Y-79156446D01*
X112143180Y-79191005D01*
X112154555Y-79228501D01*
X112159000Y-79273638D01*
X112159000Y-80012362D01*
X112154555Y-80057499D01*
X112143180Y-80094995D01*
X112124708Y-80129554D01*
X112099847Y-80159847D01*
X112069554Y-80184708D01*
X112034995Y-80203180D01*
X111997499Y-80214555D01*
X111952362Y-80219000D01*
X111313638Y-80219000D01*
X111268501Y-80214555D01*
X111231005Y-80203180D01*
X111196446Y-80184708D01*
X111166153Y-80159847D01*
X111141292Y-80129554D01*
X111122820Y-80094995D01*
X111111445Y-80057499D01*
X111107000Y-80012362D01*
X111107000Y-79273638D01*
X111111445Y-79228501D01*
X111122820Y-79191005D01*
X111141292Y-79156446D01*
X111166153Y-79126153D01*
X111196446Y-79101292D01*
X111231005Y-79082820D01*
X111268501Y-79071445D01*
X111313638Y-79067000D01*
X111952362Y-79067000D01*
X111997499Y-79071445D01*
X111997499Y-79071445D01*
G37*
G36*
X116975899Y-79046045D02*
G01*
X117013395Y-79057420D01*
X117047954Y-79075892D01*
X117078247Y-79100753D01*
X117103108Y-79131046D01*
X117121580Y-79165605D01*
X117132955Y-79203101D01*
X117137400Y-79248238D01*
X117137400Y-79986962D01*
X117132955Y-80032099D01*
X117121580Y-80069595D01*
X117103108Y-80104154D01*
X117078247Y-80134447D01*
X117047954Y-80159308D01*
X117013395Y-80177780D01*
X116975899Y-80189155D01*
X116930762Y-80193600D01*
X116292038Y-80193600D01*
X116246901Y-80189155D01*
X116209405Y-80177780D01*
X116174846Y-80159308D01*
X116144553Y-80134447D01*
X116119692Y-80104154D01*
X116101220Y-80069595D01*
X116089845Y-80032099D01*
X116085400Y-79986962D01*
X116085400Y-79248238D01*
X116089845Y-79203101D01*
X116101220Y-79165605D01*
X116119692Y-79131046D01*
X116144553Y-79100753D01*
X116174846Y-79075892D01*
X116209405Y-79057420D01*
X116246901Y-79046045D01*
X116292038Y-79041600D01*
X116930762Y-79041600D01*
X116975899Y-79046045D01*
X116975899Y-79046045D01*
G37*
G36*
X113623200Y-80019000D02*
G01*
X112621200Y-80019000D01*
X112621200Y-79117000D01*
X113623200Y-79117000D01*
X113623200Y-80019000D01*
X113623200Y-80019000D01*
G37*
G36*
X117001299Y-77138445D02*
G01*
X117038795Y-77149820D01*
X117073354Y-77168292D01*
X117103647Y-77193153D01*
X117128508Y-77223446D01*
X117146980Y-77258005D01*
X117158355Y-77295501D01*
X117162800Y-77340638D01*
X117162800Y-78079362D01*
X117158355Y-78124499D01*
X117146980Y-78161995D01*
X117128508Y-78196554D01*
X117103647Y-78226847D01*
X117073354Y-78251708D01*
X117038795Y-78270180D01*
X117001299Y-78281555D01*
X116956162Y-78286000D01*
X116317438Y-78286000D01*
X116272301Y-78281555D01*
X116234805Y-78270180D01*
X116200246Y-78251708D01*
X116169953Y-78226847D01*
X116145092Y-78196554D01*
X116126620Y-78161995D01*
X116115245Y-78124499D01*
X116110800Y-78079362D01*
X116110800Y-77340638D01*
X116115245Y-77295501D01*
X116126620Y-77258005D01*
X116145092Y-77223446D01*
X116169953Y-77193153D01*
X116200246Y-77168292D01*
X116234805Y-77149820D01*
X116272301Y-77138445D01*
X116317438Y-77134000D01*
X116956162Y-77134000D01*
X117001299Y-77138445D01*
X117001299Y-77138445D01*
G37*
G36*
X111997499Y-77138445D02*
G01*
X112034995Y-77149820D01*
X112069554Y-77168292D01*
X112099847Y-77193153D01*
X112124708Y-77223446D01*
X112143180Y-77258005D01*
X112154555Y-77295501D01*
X112159000Y-77340638D01*
X112159000Y-78079362D01*
X112154555Y-78124499D01*
X112143180Y-78161995D01*
X112124708Y-78196554D01*
X112099847Y-78226847D01*
X112069554Y-78251708D01*
X112034995Y-78270180D01*
X111997499Y-78281555D01*
X111952362Y-78286000D01*
X111313638Y-78286000D01*
X111268501Y-78281555D01*
X111231005Y-78270180D01*
X111196446Y-78251708D01*
X111166153Y-78226847D01*
X111141292Y-78196554D01*
X111122820Y-78161995D01*
X111111445Y-78124499D01*
X111107000Y-78079362D01*
X111107000Y-77340638D01*
X111111445Y-77295501D01*
X111122820Y-77258005D01*
X111141292Y-77223446D01*
X111166153Y-77193153D01*
X111196446Y-77168292D01*
X111231005Y-77149820D01*
X111268501Y-77138445D01*
X111313638Y-77134000D01*
X111952362Y-77134000D01*
X111997499Y-77138445D01*
X111997499Y-77138445D01*
G37*
G36*
X113623200Y-78236000D02*
G01*
X112621200Y-78236000D01*
X112621200Y-77334000D01*
X113623200Y-77334000D01*
X113623200Y-78236000D01*
X113623200Y-78236000D01*
G37*
G36*
X109203443Y-76143719D02*
G01*
X109269627Y-76150237D01*
X109439466Y-76201757D01*
X109595991Y-76285422D01*
X109631729Y-76314752D01*
X109733186Y-76398014D01*
X109810052Y-76491677D01*
X109845778Y-76535209D01*
X109929443Y-76691734D01*
X109980963Y-76861573D01*
X109998359Y-77038200D01*
X109980963Y-77214827D01*
X109929443Y-77384666D01*
X109845778Y-77541191D01*
X109816448Y-77576929D01*
X109733186Y-77678386D01*
X109631729Y-77761648D01*
X109595991Y-77790978D01*
X109439466Y-77874643D01*
X109269627Y-77926163D01*
X109203443Y-77932681D01*
X109137260Y-77939200D01*
X109048740Y-77939200D01*
X108982557Y-77932681D01*
X108916373Y-77926163D01*
X108746534Y-77874643D01*
X108590009Y-77790978D01*
X108554271Y-77761648D01*
X108452814Y-77678386D01*
X108369552Y-77576929D01*
X108340222Y-77541191D01*
X108256557Y-77384666D01*
X108205037Y-77214827D01*
X108187641Y-77038200D01*
X108205037Y-76861573D01*
X108256557Y-76691734D01*
X108340222Y-76535209D01*
X108375948Y-76491677D01*
X108452814Y-76398014D01*
X108554271Y-76314752D01*
X108590009Y-76285422D01*
X108746534Y-76201757D01*
X108916373Y-76150237D01*
X108982557Y-76143719D01*
X109048740Y-76137200D01*
X109137260Y-76137200D01*
X109203443Y-76143719D01*
X109203443Y-76143719D01*
G37*
G36*
X119363443Y-76143719D02*
G01*
X119429627Y-76150237D01*
X119599466Y-76201757D01*
X119755991Y-76285422D01*
X119791729Y-76314752D01*
X119893186Y-76398014D01*
X119970052Y-76491677D01*
X120005778Y-76535209D01*
X120089443Y-76691734D01*
X120140963Y-76861573D01*
X120158359Y-77038200D01*
X120140963Y-77214827D01*
X120089443Y-77384666D01*
X120005778Y-77541191D01*
X119976448Y-77576929D01*
X119893186Y-77678386D01*
X119791729Y-77761648D01*
X119755991Y-77790978D01*
X119599466Y-77874643D01*
X119429627Y-77926163D01*
X119363443Y-77932681D01*
X119297260Y-77939200D01*
X119208740Y-77939200D01*
X119142557Y-77932681D01*
X119076373Y-77926163D01*
X118906534Y-77874643D01*
X118750009Y-77790978D01*
X118714271Y-77761648D01*
X118612814Y-77678386D01*
X118529552Y-77576929D01*
X118500222Y-77541191D01*
X118416557Y-77384666D01*
X118365037Y-77214827D01*
X118347641Y-77038200D01*
X118365037Y-76861573D01*
X118416557Y-76691734D01*
X118500222Y-76535209D01*
X118535948Y-76491677D01*
X118612814Y-76398014D01*
X118714271Y-76314752D01*
X118750009Y-76285422D01*
X118906534Y-76201757D01*
X119076373Y-76150237D01*
X119142557Y-76143719D01*
X119208740Y-76137200D01*
X119297260Y-76137200D01*
X119363443Y-76143719D01*
X119363443Y-76143719D01*
G37*
G36*
X115623200Y-77286000D02*
G01*
X114621200Y-77286000D01*
X114621200Y-76384000D01*
X115623200Y-76384000D01*
X115623200Y-77286000D01*
X115623200Y-77286000D01*
G37*
G36*
X111997499Y-75388445D02*
G01*
X112034995Y-75399820D01*
X112069554Y-75418292D01*
X112099847Y-75443153D01*
X112124708Y-75473446D01*
X112143180Y-75508005D01*
X112154555Y-75545501D01*
X112159000Y-75590638D01*
X112159000Y-76329362D01*
X112154555Y-76374499D01*
X112143180Y-76411995D01*
X112124708Y-76446554D01*
X112099847Y-76476847D01*
X112069554Y-76501708D01*
X112034995Y-76520180D01*
X111997499Y-76531555D01*
X111952362Y-76536000D01*
X111313638Y-76536000D01*
X111268501Y-76531555D01*
X111231005Y-76520180D01*
X111196446Y-76501708D01*
X111166153Y-76476847D01*
X111141292Y-76446554D01*
X111122820Y-76411995D01*
X111111445Y-76374499D01*
X111107000Y-76329362D01*
X111107000Y-75590638D01*
X111111445Y-75545501D01*
X111122820Y-75508005D01*
X111141292Y-75473446D01*
X111166153Y-75443153D01*
X111196446Y-75418292D01*
X111231005Y-75399820D01*
X111268501Y-75388445D01*
X111313638Y-75384000D01*
X111952362Y-75384000D01*
X111997499Y-75388445D01*
X111997499Y-75388445D01*
G37*
G36*
X117001299Y-75388445D02*
G01*
X117038795Y-75399820D01*
X117073354Y-75418292D01*
X117103647Y-75443153D01*
X117128508Y-75473446D01*
X117146980Y-75508005D01*
X117158355Y-75545501D01*
X117162800Y-75590638D01*
X117162800Y-76329362D01*
X117158355Y-76374499D01*
X117146980Y-76411995D01*
X117128508Y-76446554D01*
X117103647Y-76476847D01*
X117073354Y-76501708D01*
X117038795Y-76520180D01*
X117001299Y-76531555D01*
X116956162Y-76536000D01*
X116317438Y-76536000D01*
X116272301Y-76531555D01*
X116234805Y-76520180D01*
X116200246Y-76501708D01*
X116169953Y-76476847D01*
X116145092Y-76446554D01*
X116126620Y-76411995D01*
X116115245Y-76374499D01*
X116110800Y-76329362D01*
X116110800Y-75590638D01*
X116115245Y-75545501D01*
X116126620Y-75508005D01*
X116145092Y-75473446D01*
X116169953Y-75443153D01*
X116200246Y-75418292D01*
X116234805Y-75399820D01*
X116272301Y-75388445D01*
X116317438Y-75384000D01*
X116956162Y-75384000D01*
X117001299Y-75388445D01*
X117001299Y-75388445D01*
G37*
G36*
X113623200Y-76336000D02*
G01*
X112621200Y-76336000D01*
X112621200Y-75434000D01*
X113623200Y-75434000D01*
X113623200Y-76336000D01*
X113623200Y-76336000D01*
G37*
G36*
X119363443Y-73603719D02*
G01*
X119429627Y-73610237D01*
X119599466Y-73661757D01*
X119599468Y-73661758D01*
X119677729Y-73703590D01*
X119755991Y-73745422D01*
X119779603Y-73764800D01*
X119893186Y-73858014D01*
X119976448Y-73959471D01*
X120005778Y-73995209D01*
X120089443Y-74151734D01*
X120140963Y-74321573D01*
X120158359Y-74498200D01*
X120140963Y-74674827D01*
X120089443Y-74844666D01*
X120005778Y-75001191D01*
X119976448Y-75036929D01*
X119893186Y-75138386D01*
X119791729Y-75221648D01*
X119755991Y-75250978D01*
X119599466Y-75334643D01*
X119429627Y-75386163D01*
X119363443Y-75392681D01*
X119297260Y-75399200D01*
X119208740Y-75399200D01*
X119142557Y-75392681D01*
X119076373Y-75386163D01*
X118906534Y-75334643D01*
X118750009Y-75250978D01*
X118714271Y-75221648D01*
X118612814Y-75138386D01*
X118529552Y-75036929D01*
X118500222Y-75001191D01*
X118416557Y-74844666D01*
X118365037Y-74674827D01*
X118347641Y-74498200D01*
X118365037Y-74321573D01*
X118416557Y-74151734D01*
X118500222Y-73995209D01*
X118529552Y-73959471D01*
X118612814Y-73858014D01*
X118726397Y-73764800D01*
X118750009Y-73745422D01*
X118828271Y-73703590D01*
X118906532Y-73661758D01*
X118906534Y-73661757D01*
X119076373Y-73610237D01*
X119142557Y-73603719D01*
X119208740Y-73597200D01*
X119297260Y-73597200D01*
X119363443Y-73603719D01*
X119363443Y-73603719D01*
G37*
G36*
X109203443Y-73603719D02*
G01*
X109269627Y-73610237D01*
X109439466Y-73661757D01*
X109439468Y-73661758D01*
X109517729Y-73703590D01*
X109595991Y-73745422D01*
X109619603Y-73764800D01*
X109733186Y-73858014D01*
X109816448Y-73959471D01*
X109845778Y-73995209D01*
X109929443Y-74151734D01*
X109980963Y-74321573D01*
X109998359Y-74498200D01*
X109980963Y-74674827D01*
X109929443Y-74844666D01*
X109845778Y-75001191D01*
X109816448Y-75036929D01*
X109733186Y-75138386D01*
X109631729Y-75221648D01*
X109595991Y-75250978D01*
X109439466Y-75334643D01*
X109269627Y-75386163D01*
X109203443Y-75392681D01*
X109137260Y-75399200D01*
X109048740Y-75399200D01*
X108982557Y-75392681D01*
X108916373Y-75386163D01*
X108746534Y-75334643D01*
X108590009Y-75250978D01*
X108554271Y-75221648D01*
X108452814Y-75138386D01*
X108369552Y-75036929D01*
X108340222Y-75001191D01*
X108256557Y-74844666D01*
X108205037Y-74674827D01*
X108187641Y-74498200D01*
X108205037Y-74321573D01*
X108256557Y-74151734D01*
X108340222Y-73995209D01*
X108369552Y-73959471D01*
X108452814Y-73858014D01*
X108566397Y-73764800D01*
X108590009Y-73745422D01*
X108668271Y-73703590D01*
X108746532Y-73661758D01*
X108746534Y-73661757D01*
X108916373Y-73610237D01*
X108982557Y-73603719D01*
X109048740Y-73597200D01*
X109137260Y-73597200D01*
X109203443Y-73603719D01*
X109203443Y-73603719D01*
G37*
G36*
X117001299Y-73506245D02*
G01*
X117038795Y-73517620D01*
X117073354Y-73536092D01*
X117103647Y-73560953D01*
X117128508Y-73591246D01*
X117146980Y-73625805D01*
X117158355Y-73663301D01*
X117162800Y-73708438D01*
X117162800Y-74447162D01*
X117158355Y-74492299D01*
X117146980Y-74529795D01*
X117128508Y-74564354D01*
X117103647Y-74594647D01*
X117073354Y-74619508D01*
X117038795Y-74637980D01*
X117001299Y-74649355D01*
X116956162Y-74653800D01*
X116317438Y-74653800D01*
X116272301Y-74649355D01*
X116234805Y-74637980D01*
X116200246Y-74619508D01*
X116169953Y-74594647D01*
X116145092Y-74564354D01*
X116126620Y-74529795D01*
X116115245Y-74492299D01*
X116110800Y-74447162D01*
X116110800Y-73708438D01*
X116115245Y-73663301D01*
X116126620Y-73625805D01*
X116145092Y-73591246D01*
X116169953Y-73560953D01*
X116200246Y-73536092D01*
X116234805Y-73517620D01*
X116272301Y-73506245D01*
X116317438Y-73501800D01*
X116956162Y-73501800D01*
X117001299Y-73506245D01*
X117001299Y-73506245D01*
G37*
G36*
X111997499Y-73455445D02*
G01*
X112034995Y-73466820D01*
X112069554Y-73485292D01*
X112099847Y-73510153D01*
X112124708Y-73540446D01*
X112143180Y-73575005D01*
X112154555Y-73612501D01*
X112159000Y-73657638D01*
X112159000Y-74396362D01*
X112154555Y-74441499D01*
X112143180Y-74478995D01*
X112124708Y-74513554D01*
X112099847Y-74543847D01*
X112069554Y-74568708D01*
X112034995Y-74587180D01*
X111997499Y-74598555D01*
X111952362Y-74603000D01*
X111313638Y-74603000D01*
X111268501Y-74598555D01*
X111231005Y-74587180D01*
X111196446Y-74568708D01*
X111166153Y-74543847D01*
X111141292Y-74513554D01*
X111122820Y-74478995D01*
X111111445Y-74441499D01*
X111107000Y-74396362D01*
X111107000Y-73657638D01*
X111111445Y-73612501D01*
X111122820Y-73575005D01*
X111141292Y-73540446D01*
X111166153Y-73510153D01*
X111196446Y-73485292D01*
X111231005Y-73466820D01*
X111268501Y-73455445D01*
X111313638Y-73451000D01*
X111952362Y-73451000D01*
X111997499Y-73455445D01*
X111997499Y-73455445D01*
G37*
G36*
X113623200Y-74553000D02*
G01*
X112621200Y-74553000D01*
X112621200Y-73651000D01*
X113623200Y-73651000D01*
X113623200Y-74553000D01*
X113623200Y-74553000D01*
G37*
G36*
X115623200Y-73603000D02*
G01*
X114621200Y-73603000D01*
X114621200Y-72701000D01*
X115623200Y-72701000D01*
X115623200Y-73603000D01*
X115623200Y-73603000D01*
G37*
G36*
X117001299Y-71756245D02*
G01*
X117038795Y-71767620D01*
X117073354Y-71786092D01*
X117103647Y-71810953D01*
X117128508Y-71841246D01*
X117146980Y-71875805D01*
X117158355Y-71913301D01*
X117162800Y-71958438D01*
X117162800Y-72697162D01*
X117158355Y-72742299D01*
X117146980Y-72779795D01*
X117128508Y-72814354D01*
X117103647Y-72844647D01*
X117073354Y-72869508D01*
X117038795Y-72887980D01*
X117001299Y-72899355D01*
X116956162Y-72903800D01*
X116317438Y-72903800D01*
X116272301Y-72899355D01*
X116234805Y-72887980D01*
X116200246Y-72869508D01*
X116169953Y-72844647D01*
X116145092Y-72814354D01*
X116126620Y-72779795D01*
X116115245Y-72742299D01*
X116110800Y-72697162D01*
X116110800Y-71958438D01*
X116115245Y-71913301D01*
X116126620Y-71875805D01*
X116145092Y-71841246D01*
X116169953Y-71810953D01*
X116200246Y-71786092D01*
X116234805Y-71767620D01*
X116272301Y-71756245D01*
X116317438Y-71751800D01*
X116956162Y-71751800D01*
X117001299Y-71756245D01*
X117001299Y-71756245D01*
G37*
G36*
X120154000Y-72859200D02*
G01*
X118352000Y-72859200D01*
X118352000Y-71057200D01*
X120154000Y-71057200D01*
X120154000Y-72859200D01*
X120154000Y-72859200D01*
G37*
G36*
X109994000Y-72859200D02*
G01*
X108192000Y-72859200D01*
X108192000Y-71057200D01*
X109994000Y-71057200D01*
X109994000Y-72859200D01*
X109994000Y-72859200D01*
G37*
G36*
X111997499Y-71705445D02*
G01*
X112034995Y-71716820D01*
X112069554Y-71735292D01*
X112099847Y-71760153D01*
X112124708Y-71790446D01*
X112143180Y-71825005D01*
X112154555Y-71862501D01*
X112159000Y-71907638D01*
X112159000Y-72646362D01*
X112154555Y-72691499D01*
X112143180Y-72728995D01*
X112124708Y-72763554D01*
X112099847Y-72793847D01*
X112069554Y-72818708D01*
X112034995Y-72837180D01*
X111997499Y-72848555D01*
X111952362Y-72853000D01*
X111313638Y-72853000D01*
X111268501Y-72848555D01*
X111231005Y-72837180D01*
X111196446Y-72818708D01*
X111166153Y-72793847D01*
X111141292Y-72763554D01*
X111122820Y-72728995D01*
X111111445Y-72691499D01*
X111107000Y-72646362D01*
X111107000Y-71907638D01*
X111111445Y-71862501D01*
X111122820Y-71825005D01*
X111141292Y-71790446D01*
X111166153Y-71760153D01*
X111196446Y-71735292D01*
X111231005Y-71716820D01*
X111268501Y-71705445D01*
X111313638Y-71701000D01*
X111952362Y-71701000D01*
X111997499Y-71705445D01*
X111997499Y-71705445D01*
G37*
G36*
X113623200Y-72653000D02*
G01*
X112621200Y-72653000D01*
X112621200Y-71751000D01*
X113623200Y-71751000D01*
X113623200Y-72653000D01*
X113623200Y-72653000D01*
G37*
M02*
