G04 #@! TF.GenerationSoftware,KiCad,Pcbnew,(5.1.4)-1*
G04 #@! TF.CreationDate,2019-10-08T20:24:19-04:00*
G04 #@! TF.ProjectId,logic level shifter (bidirectional),6c6f6769-6320-46c6-9576-656c20736869,rev?*
G04 #@! TF.SameCoordinates,Original*
G04 #@! TF.FileFunction,Copper,L1,Top*
G04 #@! TF.FilePolarity,Positive*
%FSLAX46Y46*%
G04 Gerber Fmt 4.6, Leading zero omitted, Abs format (unit mm)*
G04 Created by KiCad (PCBNEW (5.1.4)-1) date 2019-10-08 20:24:19*
%MOMM*%
%LPD*%
G04 APERTURE LIST*
%ADD10R,0.900000X0.800000*%
%ADD11C,0.100000*%
%ADD12C,0.950000*%
%ADD13O,1.700000X1.700000*%
%ADD14R,1.700000X1.700000*%
%ADD15C,0.177800*%
%ADD16C,0.254000*%
G04 APERTURE END LIST*
D10*
X113122200Y-72202000D03*
X113122200Y-74102000D03*
X115122200Y-73152000D03*
X115122200Y-76835000D03*
X113122200Y-77785000D03*
X113122200Y-75885000D03*
X113122200Y-79568000D03*
X113122200Y-81468000D03*
X115122200Y-80518000D03*
X115122200Y-84201000D03*
X113122200Y-85151000D03*
X113122200Y-83251000D03*
D11*
G36*
X111893779Y-71753144D02*
G01*
X111916834Y-71756563D01*
X111939443Y-71762227D01*
X111961387Y-71770079D01*
X111982457Y-71780044D01*
X112002448Y-71792026D01*
X112021168Y-71805910D01*
X112038438Y-71821562D01*
X112054090Y-71838832D01*
X112067974Y-71857552D01*
X112079956Y-71877543D01*
X112089921Y-71898613D01*
X112097773Y-71920557D01*
X112103437Y-71943166D01*
X112106856Y-71966221D01*
X112108000Y-71989500D01*
X112108000Y-72564500D01*
X112106856Y-72587779D01*
X112103437Y-72610834D01*
X112097773Y-72633443D01*
X112089921Y-72655387D01*
X112079956Y-72676457D01*
X112067974Y-72696448D01*
X112054090Y-72715168D01*
X112038438Y-72732438D01*
X112021168Y-72748090D01*
X112002448Y-72761974D01*
X111982457Y-72773956D01*
X111961387Y-72783921D01*
X111939443Y-72791773D01*
X111916834Y-72797437D01*
X111893779Y-72800856D01*
X111870500Y-72802000D01*
X111395500Y-72802000D01*
X111372221Y-72800856D01*
X111349166Y-72797437D01*
X111326557Y-72791773D01*
X111304613Y-72783921D01*
X111283543Y-72773956D01*
X111263552Y-72761974D01*
X111244832Y-72748090D01*
X111227562Y-72732438D01*
X111211910Y-72715168D01*
X111198026Y-72696448D01*
X111186044Y-72676457D01*
X111176079Y-72655387D01*
X111168227Y-72633443D01*
X111162563Y-72610834D01*
X111159144Y-72587779D01*
X111158000Y-72564500D01*
X111158000Y-71989500D01*
X111159144Y-71966221D01*
X111162563Y-71943166D01*
X111168227Y-71920557D01*
X111176079Y-71898613D01*
X111186044Y-71877543D01*
X111198026Y-71857552D01*
X111211910Y-71838832D01*
X111227562Y-71821562D01*
X111244832Y-71805910D01*
X111263552Y-71792026D01*
X111283543Y-71780044D01*
X111304613Y-71770079D01*
X111326557Y-71762227D01*
X111349166Y-71756563D01*
X111372221Y-71753144D01*
X111395500Y-71752000D01*
X111870500Y-71752000D01*
X111893779Y-71753144D01*
X111893779Y-71753144D01*
G37*
D12*
X111633000Y-72277000D03*
D11*
G36*
X111893779Y-73503144D02*
G01*
X111916834Y-73506563D01*
X111939443Y-73512227D01*
X111961387Y-73520079D01*
X111982457Y-73530044D01*
X112002448Y-73542026D01*
X112021168Y-73555910D01*
X112038438Y-73571562D01*
X112054090Y-73588832D01*
X112067974Y-73607552D01*
X112079956Y-73627543D01*
X112089921Y-73648613D01*
X112097773Y-73670557D01*
X112103437Y-73693166D01*
X112106856Y-73716221D01*
X112108000Y-73739500D01*
X112108000Y-74314500D01*
X112106856Y-74337779D01*
X112103437Y-74360834D01*
X112097773Y-74383443D01*
X112089921Y-74405387D01*
X112079956Y-74426457D01*
X112067974Y-74446448D01*
X112054090Y-74465168D01*
X112038438Y-74482438D01*
X112021168Y-74498090D01*
X112002448Y-74511974D01*
X111982457Y-74523956D01*
X111961387Y-74533921D01*
X111939443Y-74541773D01*
X111916834Y-74547437D01*
X111893779Y-74550856D01*
X111870500Y-74552000D01*
X111395500Y-74552000D01*
X111372221Y-74550856D01*
X111349166Y-74547437D01*
X111326557Y-74541773D01*
X111304613Y-74533921D01*
X111283543Y-74523956D01*
X111263552Y-74511974D01*
X111244832Y-74498090D01*
X111227562Y-74482438D01*
X111211910Y-74465168D01*
X111198026Y-74446448D01*
X111186044Y-74426457D01*
X111176079Y-74405387D01*
X111168227Y-74383443D01*
X111162563Y-74360834D01*
X111159144Y-74337779D01*
X111158000Y-74314500D01*
X111158000Y-73739500D01*
X111159144Y-73716221D01*
X111162563Y-73693166D01*
X111168227Y-73670557D01*
X111176079Y-73648613D01*
X111186044Y-73627543D01*
X111198026Y-73607552D01*
X111211910Y-73588832D01*
X111227562Y-73571562D01*
X111244832Y-73555910D01*
X111263552Y-73542026D01*
X111283543Y-73530044D01*
X111304613Y-73520079D01*
X111326557Y-73512227D01*
X111349166Y-73506563D01*
X111372221Y-73503144D01*
X111395500Y-73502000D01*
X111870500Y-73502000D01*
X111893779Y-73503144D01*
X111893779Y-73503144D01*
G37*
D12*
X111633000Y-74027000D03*
D11*
G36*
X116897579Y-71803944D02*
G01*
X116920634Y-71807363D01*
X116943243Y-71813027D01*
X116965187Y-71820879D01*
X116986257Y-71830844D01*
X117006248Y-71842826D01*
X117024968Y-71856710D01*
X117042238Y-71872362D01*
X117057890Y-71889632D01*
X117071774Y-71908352D01*
X117083756Y-71928343D01*
X117093721Y-71949413D01*
X117101573Y-71971357D01*
X117107237Y-71993966D01*
X117110656Y-72017021D01*
X117111800Y-72040300D01*
X117111800Y-72615300D01*
X117110656Y-72638579D01*
X117107237Y-72661634D01*
X117101573Y-72684243D01*
X117093721Y-72706187D01*
X117083756Y-72727257D01*
X117071774Y-72747248D01*
X117057890Y-72765968D01*
X117042238Y-72783238D01*
X117024968Y-72798890D01*
X117006248Y-72812774D01*
X116986257Y-72824756D01*
X116965187Y-72834721D01*
X116943243Y-72842573D01*
X116920634Y-72848237D01*
X116897579Y-72851656D01*
X116874300Y-72852800D01*
X116399300Y-72852800D01*
X116376021Y-72851656D01*
X116352966Y-72848237D01*
X116330357Y-72842573D01*
X116308413Y-72834721D01*
X116287343Y-72824756D01*
X116267352Y-72812774D01*
X116248632Y-72798890D01*
X116231362Y-72783238D01*
X116215710Y-72765968D01*
X116201826Y-72747248D01*
X116189844Y-72727257D01*
X116179879Y-72706187D01*
X116172027Y-72684243D01*
X116166363Y-72661634D01*
X116162944Y-72638579D01*
X116161800Y-72615300D01*
X116161800Y-72040300D01*
X116162944Y-72017021D01*
X116166363Y-71993966D01*
X116172027Y-71971357D01*
X116179879Y-71949413D01*
X116189844Y-71928343D01*
X116201826Y-71908352D01*
X116215710Y-71889632D01*
X116231362Y-71872362D01*
X116248632Y-71856710D01*
X116267352Y-71842826D01*
X116287343Y-71830844D01*
X116308413Y-71820879D01*
X116330357Y-71813027D01*
X116352966Y-71807363D01*
X116376021Y-71803944D01*
X116399300Y-71802800D01*
X116874300Y-71802800D01*
X116897579Y-71803944D01*
X116897579Y-71803944D01*
G37*
D12*
X116636800Y-72327800D03*
D11*
G36*
X116897579Y-73553944D02*
G01*
X116920634Y-73557363D01*
X116943243Y-73563027D01*
X116965187Y-73570879D01*
X116986257Y-73580844D01*
X117006248Y-73592826D01*
X117024968Y-73606710D01*
X117042238Y-73622362D01*
X117057890Y-73639632D01*
X117071774Y-73658352D01*
X117083756Y-73678343D01*
X117093721Y-73699413D01*
X117101573Y-73721357D01*
X117107237Y-73743966D01*
X117110656Y-73767021D01*
X117111800Y-73790300D01*
X117111800Y-74365300D01*
X117110656Y-74388579D01*
X117107237Y-74411634D01*
X117101573Y-74434243D01*
X117093721Y-74456187D01*
X117083756Y-74477257D01*
X117071774Y-74497248D01*
X117057890Y-74515968D01*
X117042238Y-74533238D01*
X117024968Y-74548890D01*
X117006248Y-74562774D01*
X116986257Y-74574756D01*
X116965187Y-74584721D01*
X116943243Y-74592573D01*
X116920634Y-74598237D01*
X116897579Y-74601656D01*
X116874300Y-74602800D01*
X116399300Y-74602800D01*
X116376021Y-74601656D01*
X116352966Y-74598237D01*
X116330357Y-74592573D01*
X116308413Y-74584721D01*
X116287343Y-74574756D01*
X116267352Y-74562774D01*
X116248632Y-74548890D01*
X116231362Y-74533238D01*
X116215710Y-74515968D01*
X116201826Y-74497248D01*
X116189844Y-74477257D01*
X116179879Y-74456187D01*
X116172027Y-74434243D01*
X116166363Y-74411634D01*
X116162944Y-74388579D01*
X116161800Y-74365300D01*
X116161800Y-73790300D01*
X116162944Y-73767021D01*
X116166363Y-73743966D01*
X116172027Y-73721357D01*
X116179879Y-73699413D01*
X116189844Y-73678343D01*
X116201826Y-73658352D01*
X116215710Y-73639632D01*
X116231362Y-73622362D01*
X116248632Y-73606710D01*
X116267352Y-73592826D01*
X116287343Y-73580844D01*
X116308413Y-73570879D01*
X116330357Y-73563027D01*
X116352966Y-73557363D01*
X116376021Y-73553944D01*
X116399300Y-73552800D01*
X116874300Y-73552800D01*
X116897579Y-73553944D01*
X116897579Y-73553944D01*
G37*
D12*
X116636800Y-74077800D03*
D11*
G36*
X111893779Y-75436144D02*
G01*
X111916834Y-75439563D01*
X111939443Y-75445227D01*
X111961387Y-75453079D01*
X111982457Y-75463044D01*
X112002448Y-75475026D01*
X112021168Y-75488910D01*
X112038438Y-75504562D01*
X112054090Y-75521832D01*
X112067974Y-75540552D01*
X112079956Y-75560543D01*
X112089921Y-75581613D01*
X112097773Y-75603557D01*
X112103437Y-75626166D01*
X112106856Y-75649221D01*
X112108000Y-75672500D01*
X112108000Y-76247500D01*
X112106856Y-76270779D01*
X112103437Y-76293834D01*
X112097773Y-76316443D01*
X112089921Y-76338387D01*
X112079956Y-76359457D01*
X112067974Y-76379448D01*
X112054090Y-76398168D01*
X112038438Y-76415438D01*
X112021168Y-76431090D01*
X112002448Y-76444974D01*
X111982457Y-76456956D01*
X111961387Y-76466921D01*
X111939443Y-76474773D01*
X111916834Y-76480437D01*
X111893779Y-76483856D01*
X111870500Y-76485000D01*
X111395500Y-76485000D01*
X111372221Y-76483856D01*
X111349166Y-76480437D01*
X111326557Y-76474773D01*
X111304613Y-76466921D01*
X111283543Y-76456956D01*
X111263552Y-76444974D01*
X111244832Y-76431090D01*
X111227562Y-76415438D01*
X111211910Y-76398168D01*
X111198026Y-76379448D01*
X111186044Y-76359457D01*
X111176079Y-76338387D01*
X111168227Y-76316443D01*
X111162563Y-76293834D01*
X111159144Y-76270779D01*
X111158000Y-76247500D01*
X111158000Y-75672500D01*
X111159144Y-75649221D01*
X111162563Y-75626166D01*
X111168227Y-75603557D01*
X111176079Y-75581613D01*
X111186044Y-75560543D01*
X111198026Y-75540552D01*
X111211910Y-75521832D01*
X111227562Y-75504562D01*
X111244832Y-75488910D01*
X111263552Y-75475026D01*
X111283543Y-75463044D01*
X111304613Y-75453079D01*
X111326557Y-75445227D01*
X111349166Y-75439563D01*
X111372221Y-75436144D01*
X111395500Y-75435000D01*
X111870500Y-75435000D01*
X111893779Y-75436144D01*
X111893779Y-75436144D01*
G37*
D12*
X111633000Y-75960000D03*
D11*
G36*
X111893779Y-77186144D02*
G01*
X111916834Y-77189563D01*
X111939443Y-77195227D01*
X111961387Y-77203079D01*
X111982457Y-77213044D01*
X112002448Y-77225026D01*
X112021168Y-77238910D01*
X112038438Y-77254562D01*
X112054090Y-77271832D01*
X112067974Y-77290552D01*
X112079956Y-77310543D01*
X112089921Y-77331613D01*
X112097773Y-77353557D01*
X112103437Y-77376166D01*
X112106856Y-77399221D01*
X112108000Y-77422500D01*
X112108000Y-77997500D01*
X112106856Y-78020779D01*
X112103437Y-78043834D01*
X112097773Y-78066443D01*
X112089921Y-78088387D01*
X112079956Y-78109457D01*
X112067974Y-78129448D01*
X112054090Y-78148168D01*
X112038438Y-78165438D01*
X112021168Y-78181090D01*
X112002448Y-78194974D01*
X111982457Y-78206956D01*
X111961387Y-78216921D01*
X111939443Y-78224773D01*
X111916834Y-78230437D01*
X111893779Y-78233856D01*
X111870500Y-78235000D01*
X111395500Y-78235000D01*
X111372221Y-78233856D01*
X111349166Y-78230437D01*
X111326557Y-78224773D01*
X111304613Y-78216921D01*
X111283543Y-78206956D01*
X111263552Y-78194974D01*
X111244832Y-78181090D01*
X111227562Y-78165438D01*
X111211910Y-78148168D01*
X111198026Y-78129448D01*
X111186044Y-78109457D01*
X111176079Y-78088387D01*
X111168227Y-78066443D01*
X111162563Y-78043834D01*
X111159144Y-78020779D01*
X111158000Y-77997500D01*
X111158000Y-77422500D01*
X111159144Y-77399221D01*
X111162563Y-77376166D01*
X111168227Y-77353557D01*
X111176079Y-77331613D01*
X111186044Y-77310543D01*
X111198026Y-77290552D01*
X111211910Y-77271832D01*
X111227562Y-77254562D01*
X111244832Y-77238910D01*
X111263552Y-77225026D01*
X111283543Y-77213044D01*
X111304613Y-77203079D01*
X111326557Y-77195227D01*
X111349166Y-77189563D01*
X111372221Y-77186144D01*
X111395500Y-77185000D01*
X111870500Y-77185000D01*
X111893779Y-77186144D01*
X111893779Y-77186144D01*
G37*
D12*
X111633000Y-77710000D03*
D11*
G36*
X116897579Y-77186144D02*
G01*
X116920634Y-77189563D01*
X116943243Y-77195227D01*
X116965187Y-77203079D01*
X116986257Y-77213044D01*
X117006248Y-77225026D01*
X117024968Y-77238910D01*
X117042238Y-77254562D01*
X117057890Y-77271832D01*
X117071774Y-77290552D01*
X117083756Y-77310543D01*
X117093721Y-77331613D01*
X117101573Y-77353557D01*
X117107237Y-77376166D01*
X117110656Y-77399221D01*
X117111800Y-77422500D01*
X117111800Y-77997500D01*
X117110656Y-78020779D01*
X117107237Y-78043834D01*
X117101573Y-78066443D01*
X117093721Y-78088387D01*
X117083756Y-78109457D01*
X117071774Y-78129448D01*
X117057890Y-78148168D01*
X117042238Y-78165438D01*
X117024968Y-78181090D01*
X117006248Y-78194974D01*
X116986257Y-78206956D01*
X116965187Y-78216921D01*
X116943243Y-78224773D01*
X116920634Y-78230437D01*
X116897579Y-78233856D01*
X116874300Y-78235000D01*
X116399300Y-78235000D01*
X116376021Y-78233856D01*
X116352966Y-78230437D01*
X116330357Y-78224773D01*
X116308413Y-78216921D01*
X116287343Y-78206956D01*
X116267352Y-78194974D01*
X116248632Y-78181090D01*
X116231362Y-78165438D01*
X116215710Y-78148168D01*
X116201826Y-78129448D01*
X116189844Y-78109457D01*
X116179879Y-78088387D01*
X116172027Y-78066443D01*
X116166363Y-78043834D01*
X116162944Y-78020779D01*
X116161800Y-77997500D01*
X116161800Y-77422500D01*
X116162944Y-77399221D01*
X116166363Y-77376166D01*
X116172027Y-77353557D01*
X116179879Y-77331613D01*
X116189844Y-77310543D01*
X116201826Y-77290552D01*
X116215710Y-77271832D01*
X116231362Y-77254562D01*
X116248632Y-77238910D01*
X116267352Y-77225026D01*
X116287343Y-77213044D01*
X116308413Y-77203079D01*
X116330357Y-77195227D01*
X116352966Y-77189563D01*
X116376021Y-77186144D01*
X116399300Y-77185000D01*
X116874300Y-77185000D01*
X116897579Y-77186144D01*
X116897579Y-77186144D01*
G37*
D12*
X116636800Y-77710000D03*
D11*
G36*
X116897579Y-75436144D02*
G01*
X116920634Y-75439563D01*
X116943243Y-75445227D01*
X116965187Y-75453079D01*
X116986257Y-75463044D01*
X117006248Y-75475026D01*
X117024968Y-75488910D01*
X117042238Y-75504562D01*
X117057890Y-75521832D01*
X117071774Y-75540552D01*
X117083756Y-75560543D01*
X117093721Y-75581613D01*
X117101573Y-75603557D01*
X117107237Y-75626166D01*
X117110656Y-75649221D01*
X117111800Y-75672500D01*
X117111800Y-76247500D01*
X117110656Y-76270779D01*
X117107237Y-76293834D01*
X117101573Y-76316443D01*
X117093721Y-76338387D01*
X117083756Y-76359457D01*
X117071774Y-76379448D01*
X117057890Y-76398168D01*
X117042238Y-76415438D01*
X117024968Y-76431090D01*
X117006248Y-76444974D01*
X116986257Y-76456956D01*
X116965187Y-76466921D01*
X116943243Y-76474773D01*
X116920634Y-76480437D01*
X116897579Y-76483856D01*
X116874300Y-76485000D01*
X116399300Y-76485000D01*
X116376021Y-76483856D01*
X116352966Y-76480437D01*
X116330357Y-76474773D01*
X116308413Y-76466921D01*
X116287343Y-76456956D01*
X116267352Y-76444974D01*
X116248632Y-76431090D01*
X116231362Y-76415438D01*
X116215710Y-76398168D01*
X116201826Y-76379448D01*
X116189844Y-76359457D01*
X116179879Y-76338387D01*
X116172027Y-76316443D01*
X116166363Y-76293834D01*
X116162944Y-76270779D01*
X116161800Y-76247500D01*
X116161800Y-75672500D01*
X116162944Y-75649221D01*
X116166363Y-75626166D01*
X116172027Y-75603557D01*
X116179879Y-75581613D01*
X116189844Y-75560543D01*
X116201826Y-75540552D01*
X116215710Y-75521832D01*
X116231362Y-75504562D01*
X116248632Y-75488910D01*
X116267352Y-75475026D01*
X116287343Y-75463044D01*
X116308413Y-75453079D01*
X116330357Y-75445227D01*
X116352966Y-75439563D01*
X116376021Y-75436144D01*
X116399300Y-75435000D01*
X116874300Y-75435000D01*
X116897579Y-75436144D01*
X116897579Y-75436144D01*
G37*
D12*
X116636800Y-75960000D03*
D11*
G36*
X111893779Y-79119144D02*
G01*
X111916834Y-79122563D01*
X111939443Y-79128227D01*
X111961387Y-79136079D01*
X111982457Y-79146044D01*
X112002448Y-79158026D01*
X112021168Y-79171910D01*
X112038438Y-79187562D01*
X112054090Y-79204832D01*
X112067974Y-79223552D01*
X112079956Y-79243543D01*
X112089921Y-79264613D01*
X112097773Y-79286557D01*
X112103437Y-79309166D01*
X112106856Y-79332221D01*
X112108000Y-79355500D01*
X112108000Y-79930500D01*
X112106856Y-79953779D01*
X112103437Y-79976834D01*
X112097773Y-79999443D01*
X112089921Y-80021387D01*
X112079956Y-80042457D01*
X112067974Y-80062448D01*
X112054090Y-80081168D01*
X112038438Y-80098438D01*
X112021168Y-80114090D01*
X112002448Y-80127974D01*
X111982457Y-80139956D01*
X111961387Y-80149921D01*
X111939443Y-80157773D01*
X111916834Y-80163437D01*
X111893779Y-80166856D01*
X111870500Y-80168000D01*
X111395500Y-80168000D01*
X111372221Y-80166856D01*
X111349166Y-80163437D01*
X111326557Y-80157773D01*
X111304613Y-80149921D01*
X111283543Y-80139956D01*
X111263552Y-80127974D01*
X111244832Y-80114090D01*
X111227562Y-80098438D01*
X111211910Y-80081168D01*
X111198026Y-80062448D01*
X111186044Y-80042457D01*
X111176079Y-80021387D01*
X111168227Y-79999443D01*
X111162563Y-79976834D01*
X111159144Y-79953779D01*
X111158000Y-79930500D01*
X111158000Y-79355500D01*
X111159144Y-79332221D01*
X111162563Y-79309166D01*
X111168227Y-79286557D01*
X111176079Y-79264613D01*
X111186044Y-79243543D01*
X111198026Y-79223552D01*
X111211910Y-79204832D01*
X111227562Y-79187562D01*
X111244832Y-79171910D01*
X111263552Y-79158026D01*
X111283543Y-79146044D01*
X111304613Y-79136079D01*
X111326557Y-79128227D01*
X111349166Y-79122563D01*
X111372221Y-79119144D01*
X111395500Y-79118000D01*
X111870500Y-79118000D01*
X111893779Y-79119144D01*
X111893779Y-79119144D01*
G37*
D12*
X111633000Y-79643000D03*
D11*
G36*
X111893779Y-80869144D02*
G01*
X111916834Y-80872563D01*
X111939443Y-80878227D01*
X111961387Y-80886079D01*
X111982457Y-80896044D01*
X112002448Y-80908026D01*
X112021168Y-80921910D01*
X112038438Y-80937562D01*
X112054090Y-80954832D01*
X112067974Y-80973552D01*
X112079956Y-80993543D01*
X112089921Y-81014613D01*
X112097773Y-81036557D01*
X112103437Y-81059166D01*
X112106856Y-81082221D01*
X112108000Y-81105500D01*
X112108000Y-81680500D01*
X112106856Y-81703779D01*
X112103437Y-81726834D01*
X112097773Y-81749443D01*
X112089921Y-81771387D01*
X112079956Y-81792457D01*
X112067974Y-81812448D01*
X112054090Y-81831168D01*
X112038438Y-81848438D01*
X112021168Y-81864090D01*
X112002448Y-81877974D01*
X111982457Y-81889956D01*
X111961387Y-81899921D01*
X111939443Y-81907773D01*
X111916834Y-81913437D01*
X111893779Y-81916856D01*
X111870500Y-81918000D01*
X111395500Y-81918000D01*
X111372221Y-81916856D01*
X111349166Y-81913437D01*
X111326557Y-81907773D01*
X111304613Y-81899921D01*
X111283543Y-81889956D01*
X111263552Y-81877974D01*
X111244832Y-81864090D01*
X111227562Y-81848438D01*
X111211910Y-81831168D01*
X111198026Y-81812448D01*
X111186044Y-81792457D01*
X111176079Y-81771387D01*
X111168227Y-81749443D01*
X111162563Y-81726834D01*
X111159144Y-81703779D01*
X111158000Y-81680500D01*
X111158000Y-81105500D01*
X111159144Y-81082221D01*
X111162563Y-81059166D01*
X111168227Y-81036557D01*
X111176079Y-81014613D01*
X111186044Y-80993543D01*
X111198026Y-80973552D01*
X111211910Y-80954832D01*
X111227562Y-80937562D01*
X111244832Y-80921910D01*
X111263552Y-80908026D01*
X111283543Y-80896044D01*
X111304613Y-80886079D01*
X111326557Y-80878227D01*
X111349166Y-80872563D01*
X111372221Y-80869144D01*
X111395500Y-80868000D01*
X111870500Y-80868000D01*
X111893779Y-80869144D01*
X111893779Y-80869144D01*
G37*
D12*
X111633000Y-81393000D03*
D11*
G36*
X116872179Y-80843744D02*
G01*
X116895234Y-80847163D01*
X116917843Y-80852827D01*
X116939787Y-80860679D01*
X116960857Y-80870644D01*
X116980848Y-80882626D01*
X116999568Y-80896510D01*
X117016838Y-80912162D01*
X117032490Y-80929432D01*
X117046374Y-80948152D01*
X117058356Y-80968143D01*
X117068321Y-80989213D01*
X117076173Y-81011157D01*
X117081837Y-81033766D01*
X117085256Y-81056821D01*
X117086400Y-81080100D01*
X117086400Y-81655100D01*
X117085256Y-81678379D01*
X117081837Y-81701434D01*
X117076173Y-81724043D01*
X117068321Y-81745987D01*
X117058356Y-81767057D01*
X117046374Y-81787048D01*
X117032490Y-81805768D01*
X117016838Y-81823038D01*
X116999568Y-81838690D01*
X116980848Y-81852574D01*
X116960857Y-81864556D01*
X116939787Y-81874521D01*
X116917843Y-81882373D01*
X116895234Y-81888037D01*
X116872179Y-81891456D01*
X116848900Y-81892600D01*
X116373900Y-81892600D01*
X116350621Y-81891456D01*
X116327566Y-81888037D01*
X116304957Y-81882373D01*
X116283013Y-81874521D01*
X116261943Y-81864556D01*
X116241952Y-81852574D01*
X116223232Y-81838690D01*
X116205962Y-81823038D01*
X116190310Y-81805768D01*
X116176426Y-81787048D01*
X116164444Y-81767057D01*
X116154479Y-81745987D01*
X116146627Y-81724043D01*
X116140963Y-81701434D01*
X116137544Y-81678379D01*
X116136400Y-81655100D01*
X116136400Y-81080100D01*
X116137544Y-81056821D01*
X116140963Y-81033766D01*
X116146627Y-81011157D01*
X116154479Y-80989213D01*
X116164444Y-80968143D01*
X116176426Y-80948152D01*
X116190310Y-80929432D01*
X116205962Y-80912162D01*
X116223232Y-80896510D01*
X116241952Y-80882626D01*
X116261943Y-80870644D01*
X116283013Y-80860679D01*
X116304957Y-80852827D01*
X116327566Y-80847163D01*
X116350621Y-80843744D01*
X116373900Y-80842600D01*
X116848900Y-80842600D01*
X116872179Y-80843744D01*
X116872179Y-80843744D01*
G37*
D12*
X116611400Y-81367600D03*
D11*
G36*
X116872179Y-79093744D02*
G01*
X116895234Y-79097163D01*
X116917843Y-79102827D01*
X116939787Y-79110679D01*
X116960857Y-79120644D01*
X116980848Y-79132626D01*
X116999568Y-79146510D01*
X117016838Y-79162162D01*
X117032490Y-79179432D01*
X117046374Y-79198152D01*
X117058356Y-79218143D01*
X117068321Y-79239213D01*
X117076173Y-79261157D01*
X117081837Y-79283766D01*
X117085256Y-79306821D01*
X117086400Y-79330100D01*
X117086400Y-79905100D01*
X117085256Y-79928379D01*
X117081837Y-79951434D01*
X117076173Y-79974043D01*
X117068321Y-79995987D01*
X117058356Y-80017057D01*
X117046374Y-80037048D01*
X117032490Y-80055768D01*
X117016838Y-80073038D01*
X116999568Y-80088690D01*
X116980848Y-80102574D01*
X116960857Y-80114556D01*
X116939787Y-80124521D01*
X116917843Y-80132373D01*
X116895234Y-80138037D01*
X116872179Y-80141456D01*
X116848900Y-80142600D01*
X116373900Y-80142600D01*
X116350621Y-80141456D01*
X116327566Y-80138037D01*
X116304957Y-80132373D01*
X116283013Y-80124521D01*
X116261943Y-80114556D01*
X116241952Y-80102574D01*
X116223232Y-80088690D01*
X116205962Y-80073038D01*
X116190310Y-80055768D01*
X116176426Y-80037048D01*
X116164444Y-80017057D01*
X116154479Y-79995987D01*
X116146627Y-79974043D01*
X116140963Y-79951434D01*
X116137544Y-79928379D01*
X116136400Y-79905100D01*
X116136400Y-79330100D01*
X116137544Y-79306821D01*
X116140963Y-79283766D01*
X116146627Y-79261157D01*
X116154479Y-79239213D01*
X116164444Y-79218143D01*
X116176426Y-79198152D01*
X116190310Y-79179432D01*
X116205962Y-79162162D01*
X116223232Y-79146510D01*
X116241952Y-79132626D01*
X116261943Y-79120644D01*
X116283013Y-79110679D01*
X116304957Y-79102827D01*
X116327566Y-79097163D01*
X116350621Y-79093744D01*
X116373900Y-79092600D01*
X116848900Y-79092600D01*
X116872179Y-79093744D01*
X116872179Y-79093744D01*
G37*
D12*
X116611400Y-79617600D03*
D11*
G36*
X111893779Y-82802144D02*
G01*
X111916834Y-82805563D01*
X111939443Y-82811227D01*
X111961387Y-82819079D01*
X111982457Y-82829044D01*
X112002448Y-82841026D01*
X112021168Y-82854910D01*
X112038438Y-82870562D01*
X112054090Y-82887832D01*
X112067974Y-82906552D01*
X112079956Y-82926543D01*
X112089921Y-82947613D01*
X112097773Y-82969557D01*
X112103437Y-82992166D01*
X112106856Y-83015221D01*
X112108000Y-83038500D01*
X112108000Y-83613500D01*
X112106856Y-83636779D01*
X112103437Y-83659834D01*
X112097773Y-83682443D01*
X112089921Y-83704387D01*
X112079956Y-83725457D01*
X112067974Y-83745448D01*
X112054090Y-83764168D01*
X112038438Y-83781438D01*
X112021168Y-83797090D01*
X112002448Y-83810974D01*
X111982457Y-83822956D01*
X111961387Y-83832921D01*
X111939443Y-83840773D01*
X111916834Y-83846437D01*
X111893779Y-83849856D01*
X111870500Y-83851000D01*
X111395500Y-83851000D01*
X111372221Y-83849856D01*
X111349166Y-83846437D01*
X111326557Y-83840773D01*
X111304613Y-83832921D01*
X111283543Y-83822956D01*
X111263552Y-83810974D01*
X111244832Y-83797090D01*
X111227562Y-83781438D01*
X111211910Y-83764168D01*
X111198026Y-83745448D01*
X111186044Y-83725457D01*
X111176079Y-83704387D01*
X111168227Y-83682443D01*
X111162563Y-83659834D01*
X111159144Y-83636779D01*
X111158000Y-83613500D01*
X111158000Y-83038500D01*
X111159144Y-83015221D01*
X111162563Y-82992166D01*
X111168227Y-82969557D01*
X111176079Y-82947613D01*
X111186044Y-82926543D01*
X111198026Y-82906552D01*
X111211910Y-82887832D01*
X111227562Y-82870562D01*
X111244832Y-82854910D01*
X111263552Y-82841026D01*
X111283543Y-82829044D01*
X111304613Y-82819079D01*
X111326557Y-82811227D01*
X111349166Y-82805563D01*
X111372221Y-82802144D01*
X111395500Y-82801000D01*
X111870500Y-82801000D01*
X111893779Y-82802144D01*
X111893779Y-82802144D01*
G37*
D12*
X111633000Y-83326000D03*
D11*
G36*
X111893779Y-84552144D02*
G01*
X111916834Y-84555563D01*
X111939443Y-84561227D01*
X111961387Y-84569079D01*
X111982457Y-84579044D01*
X112002448Y-84591026D01*
X112021168Y-84604910D01*
X112038438Y-84620562D01*
X112054090Y-84637832D01*
X112067974Y-84656552D01*
X112079956Y-84676543D01*
X112089921Y-84697613D01*
X112097773Y-84719557D01*
X112103437Y-84742166D01*
X112106856Y-84765221D01*
X112108000Y-84788500D01*
X112108000Y-85363500D01*
X112106856Y-85386779D01*
X112103437Y-85409834D01*
X112097773Y-85432443D01*
X112089921Y-85454387D01*
X112079956Y-85475457D01*
X112067974Y-85495448D01*
X112054090Y-85514168D01*
X112038438Y-85531438D01*
X112021168Y-85547090D01*
X112002448Y-85560974D01*
X111982457Y-85572956D01*
X111961387Y-85582921D01*
X111939443Y-85590773D01*
X111916834Y-85596437D01*
X111893779Y-85599856D01*
X111870500Y-85601000D01*
X111395500Y-85601000D01*
X111372221Y-85599856D01*
X111349166Y-85596437D01*
X111326557Y-85590773D01*
X111304613Y-85582921D01*
X111283543Y-85572956D01*
X111263552Y-85560974D01*
X111244832Y-85547090D01*
X111227562Y-85531438D01*
X111211910Y-85514168D01*
X111198026Y-85495448D01*
X111186044Y-85475457D01*
X111176079Y-85454387D01*
X111168227Y-85432443D01*
X111162563Y-85409834D01*
X111159144Y-85386779D01*
X111158000Y-85363500D01*
X111158000Y-84788500D01*
X111159144Y-84765221D01*
X111162563Y-84742166D01*
X111168227Y-84719557D01*
X111176079Y-84697613D01*
X111186044Y-84676543D01*
X111198026Y-84656552D01*
X111211910Y-84637832D01*
X111227562Y-84620562D01*
X111244832Y-84604910D01*
X111263552Y-84591026D01*
X111283543Y-84579044D01*
X111304613Y-84569079D01*
X111326557Y-84561227D01*
X111349166Y-84555563D01*
X111372221Y-84552144D01*
X111395500Y-84551000D01*
X111870500Y-84551000D01*
X111893779Y-84552144D01*
X111893779Y-84552144D01*
G37*
D12*
X111633000Y-85076000D03*
D11*
G36*
X116872179Y-82802144D02*
G01*
X116895234Y-82805563D01*
X116917843Y-82811227D01*
X116939787Y-82819079D01*
X116960857Y-82829044D01*
X116980848Y-82841026D01*
X116999568Y-82854910D01*
X117016838Y-82870562D01*
X117032490Y-82887832D01*
X117046374Y-82906552D01*
X117058356Y-82926543D01*
X117068321Y-82947613D01*
X117076173Y-82969557D01*
X117081837Y-82992166D01*
X117085256Y-83015221D01*
X117086400Y-83038500D01*
X117086400Y-83613500D01*
X117085256Y-83636779D01*
X117081837Y-83659834D01*
X117076173Y-83682443D01*
X117068321Y-83704387D01*
X117058356Y-83725457D01*
X117046374Y-83745448D01*
X117032490Y-83764168D01*
X117016838Y-83781438D01*
X116999568Y-83797090D01*
X116980848Y-83810974D01*
X116960857Y-83822956D01*
X116939787Y-83832921D01*
X116917843Y-83840773D01*
X116895234Y-83846437D01*
X116872179Y-83849856D01*
X116848900Y-83851000D01*
X116373900Y-83851000D01*
X116350621Y-83849856D01*
X116327566Y-83846437D01*
X116304957Y-83840773D01*
X116283013Y-83832921D01*
X116261943Y-83822956D01*
X116241952Y-83810974D01*
X116223232Y-83797090D01*
X116205962Y-83781438D01*
X116190310Y-83764168D01*
X116176426Y-83745448D01*
X116164444Y-83725457D01*
X116154479Y-83704387D01*
X116146627Y-83682443D01*
X116140963Y-83659834D01*
X116137544Y-83636779D01*
X116136400Y-83613500D01*
X116136400Y-83038500D01*
X116137544Y-83015221D01*
X116140963Y-82992166D01*
X116146627Y-82969557D01*
X116154479Y-82947613D01*
X116164444Y-82926543D01*
X116176426Y-82906552D01*
X116190310Y-82887832D01*
X116205962Y-82870562D01*
X116223232Y-82854910D01*
X116241952Y-82841026D01*
X116261943Y-82829044D01*
X116283013Y-82819079D01*
X116304957Y-82811227D01*
X116327566Y-82805563D01*
X116350621Y-82802144D01*
X116373900Y-82801000D01*
X116848900Y-82801000D01*
X116872179Y-82802144D01*
X116872179Y-82802144D01*
G37*
D12*
X116611400Y-83326000D03*
D11*
G36*
X116872179Y-84552144D02*
G01*
X116895234Y-84555563D01*
X116917843Y-84561227D01*
X116939787Y-84569079D01*
X116960857Y-84579044D01*
X116980848Y-84591026D01*
X116999568Y-84604910D01*
X117016838Y-84620562D01*
X117032490Y-84637832D01*
X117046374Y-84656552D01*
X117058356Y-84676543D01*
X117068321Y-84697613D01*
X117076173Y-84719557D01*
X117081837Y-84742166D01*
X117085256Y-84765221D01*
X117086400Y-84788500D01*
X117086400Y-85363500D01*
X117085256Y-85386779D01*
X117081837Y-85409834D01*
X117076173Y-85432443D01*
X117068321Y-85454387D01*
X117058356Y-85475457D01*
X117046374Y-85495448D01*
X117032490Y-85514168D01*
X117016838Y-85531438D01*
X116999568Y-85547090D01*
X116980848Y-85560974D01*
X116960857Y-85572956D01*
X116939787Y-85582921D01*
X116917843Y-85590773D01*
X116895234Y-85596437D01*
X116872179Y-85599856D01*
X116848900Y-85601000D01*
X116373900Y-85601000D01*
X116350621Y-85599856D01*
X116327566Y-85596437D01*
X116304957Y-85590773D01*
X116283013Y-85582921D01*
X116261943Y-85572956D01*
X116241952Y-85560974D01*
X116223232Y-85547090D01*
X116205962Y-85531438D01*
X116190310Y-85514168D01*
X116176426Y-85495448D01*
X116164444Y-85475457D01*
X116154479Y-85454387D01*
X116146627Y-85432443D01*
X116140963Y-85409834D01*
X116137544Y-85386779D01*
X116136400Y-85363500D01*
X116136400Y-84788500D01*
X116137544Y-84765221D01*
X116140963Y-84742166D01*
X116146627Y-84719557D01*
X116154479Y-84697613D01*
X116164444Y-84676543D01*
X116176426Y-84656552D01*
X116190310Y-84637832D01*
X116205962Y-84620562D01*
X116223232Y-84604910D01*
X116241952Y-84591026D01*
X116261943Y-84579044D01*
X116283013Y-84569079D01*
X116304957Y-84561227D01*
X116327566Y-84555563D01*
X116350621Y-84552144D01*
X116373900Y-84551000D01*
X116848900Y-84551000D01*
X116872179Y-84552144D01*
X116872179Y-84552144D01*
G37*
D12*
X116611400Y-85076000D03*
D13*
X109093000Y-84658200D03*
X109093000Y-82118200D03*
X109093000Y-79578200D03*
X109093000Y-77038200D03*
X109093000Y-74498200D03*
D14*
X109093000Y-71958200D03*
X119253000Y-71958200D03*
D13*
X119253000Y-74498200D03*
X119253000Y-77038200D03*
X119253000Y-79578200D03*
X119253000Y-82118200D03*
X119253000Y-84658200D03*
D15*
X113225000Y-85076000D02*
X113300000Y-85151000D01*
X111215200Y-84658200D02*
X111633000Y-85076000D01*
X109093000Y-84658200D02*
X111215200Y-84658200D01*
X111708000Y-85151000D02*
X111633000Y-85076000D01*
X113122200Y-85151000D02*
X111708000Y-85151000D01*
X109818200Y-81393000D02*
X109093000Y-82118200D01*
X111633000Y-81393000D02*
X109818200Y-81393000D01*
X111708000Y-81468000D02*
X111633000Y-81393000D01*
X113122200Y-81468000D02*
X111708000Y-81468000D01*
X111708000Y-83251000D02*
X111633000Y-83326000D01*
X113122200Y-83251000D02*
X111708000Y-83251000D01*
X113047200Y-79643000D02*
X113122200Y-79568000D01*
X111633000Y-79643000D02*
X113047200Y-79643000D01*
X113047200Y-75960000D02*
X113122200Y-75885000D01*
X111633000Y-75960000D02*
X113047200Y-75960000D01*
X113047200Y-72277000D02*
X113122200Y-72202000D01*
X111633000Y-72277000D02*
X113047200Y-72277000D01*
X113172200Y-75885000D02*
X113122200Y-75885000D01*
X113861101Y-75196099D02*
X113172200Y-75885000D01*
X113861101Y-73518701D02*
X113861101Y-75196099D01*
X113122200Y-72779800D02*
X113861101Y-73518701D01*
X113122200Y-72202000D02*
X113122200Y-72779800D01*
X113172200Y-79568000D02*
X113122200Y-79568000D01*
X113861101Y-78879099D02*
X113172200Y-79568000D01*
X113861101Y-77201701D02*
X113861101Y-78879099D01*
X113122200Y-76462800D02*
X113861101Y-77201701D01*
X113122200Y-75885000D02*
X113122200Y-76462800D01*
X113172200Y-83251000D02*
X113122200Y-83251000D01*
X113861101Y-82562099D02*
X113172200Y-83251000D01*
X113861101Y-80884701D02*
X113861101Y-82562099D01*
X113122200Y-80145800D02*
X113861101Y-80884701D01*
X113122200Y-79568000D02*
X113122200Y-80145800D01*
X109093000Y-77103000D02*
X109093000Y-77038200D01*
X111633000Y-79643000D02*
X109093000Y-77103000D01*
X109093000Y-75170000D02*
X109093000Y-74498200D01*
X111633000Y-77710000D02*
X109093000Y-75170000D01*
X111708000Y-77785000D02*
X111633000Y-77710000D01*
X113122200Y-77785000D02*
X111708000Y-77785000D01*
X113225000Y-74027000D02*
X113300000Y-74102000D01*
X109093000Y-72062000D02*
X109093000Y-71958200D01*
X111058000Y-74027000D02*
X109093000Y-72062000D01*
X111633000Y-74027000D02*
X111058000Y-74027000D01*
X111708000Y-74102000D02*
X111633000Y-74027000D01*
X113122200Y-74102000D02*
X111708000Y-74102000D01*
X115812600Y-73152000D02*
X116636800Y-72327800D01*
X115122200Y-73152000D02*
X115812600Y-73152000D01*
X118883400Y-72327800D02*
X119253000Y-71958200D01*
X116636800Y-72327800D02*
X118883400Y-72327800D01*
X115761800Y-76835000D02*
X115122200Y-76835000D01*
X116636800Y-77710000D02*
X115761800Y-76835000D01*
X119253000Y-75093800D02*
X119253000Y-74498200D01*
X116636800Y-77710000D02*
X119253000Y-75093800D01*
X116636800Y-74077800D02*
X116636800Y-75960000D01*
X116112328Y-79118528D02*
X116611400Y-79617600D01*
X114383299Y-77389499D02*
X116112328Y-79118528D01*
X114383299Y-76203879D02*
X114383299Y-77389499D01*
X114627178Y-75960000D02*
X114383299Y-76203879D01*
X116636800Y-75960000D02*
X114627178Y-75960000D01*
X116112328Y-82826928D02*
X116611400Y-83326000D01*
X114383299Y-81097899D02*
X116112328Y-82826928D01*
X114383299Y-79886879D02*
X114383299Y-81097899D01*
X114652578Y-79617600D02*
X114383299Y-79886879D01*
X116611400Y-79617600D02*
X114652578Y-79617600D01*
X119190800Y-77038200D02*
X119253000Y-77038200D01*
X116611400Y-79617600D02*
X119190800Y-77038200D01*
X115761800Y-80518000D02*
X116611400Y-81367600D01*
X115122200Y-80518000D02*
X115761800Y-80518000D01*
X118502400Y-81367600D02*
X119253000Y-82118200D01*
X116611400Y-81367600D02*
X118502400Y-81367600D01*
X116047200Y-85076000D02*
X116611400Y-85076000D01*
X115172200Y-84201000D02*
X116047200Y-85076000D01*
X115122200Y-84201000D02*
X115172200Y-84201000D01*
X118835200Y-85076000D02*
X119253000Y-84658200D01*
X116611400Y-85076000D02*
X118835200Y-85076000D01*
D16*
G36*
X120381010Y-70239272D02*
G01*
X120684213Y-70330814D01*
X120963864Y-70479507D01*
X121209305Y-70679684D01*
X121411191Y-70923721D01*
X121561831Y-71202325D01*
X121655490Y-71504888D01*
X121691801Y-71850367D01*
X121691800Y-85083121D01*
X121657728Y-85430609D01*
X121566184Y-85733817D01*
X121417493Y-86013463D01*
X121217316Y-86258905D01*
X120973276Y-86460792D01*
X120694675Y-86611431D01*
X120392113Y-86705090D01*
X120046642Y-86741400D01*
X108236279Y-86741400D01*
X107888791Y-86707328D01*
X107585583Y-86615784D01*
X107305937Y-86467093D01*
X107060495Y-86266916D01*
X106858608Y-86022876D01*
X106707969Y-85744275D01*
X106614310Y-85441713D01*
X106578000Y-85096242D01*
X106578000Y-74498200D01*
X107600815Y-74498200D01*
X107629487Y-74789311D01*
X107714401Y-75069234D01*
X107852294Y-75327214D01*
X108037866Y-75553334D01*
X108263986Y-75738906D01*
X108318791Y-75768200D01*
X108263986Y-75797494D01*
X108037866Y-75983066D01*
X107852294Y-76209186D01*
X107714401Y-76467166D01*
X107629487Y-76747089D01*
X107600815Y-77038200D01*
X107629487Y-77329311D01*
X107714401Y-77609234D01*
X107852294Y-77867214D01*
X108037866Y-78093334D01*
X108263986Y-78278906D01*
X108328523Y-78313401D01*
X108211645Y-78383022D01*
X107995412Y-78577931D01*
X107821359Y-78811280D01*
X107696175Y-79074101D01*
X107651524Y-79221310D01*
X107772845Y-79451200D01*
X108966000Y-79451200D01*
X108966000Y-79431200D01*
X109220000Y-79431200D01*
X109220000Y-79451200D01*
X109240000Y-79451200D01*
X109240000Y-79705200D01*
X109220000Y-79705200D01*
X109220000Y-79725200D01*
X108966000Y-79725200D01*
X108966000Y-79705200D01*
X107772845Y-79705200D01*
X107651524Y-79935090D01*
X107696175Y-80082299D01*
X107821359Y-80345120D01*
X107995412Y-80578469D01*
X108211645Y-80773378D01*
X108328523Y-80842999D01*
X108263986Y-80877494D01*
X108037866Y-81063066D01*
X107852294Y-81289186D01*
X107714401Y-81547166D01*
X107629487Y-81827089D01*
X107600815Y-82118200D01*
X107629487Y-82409311D01*
X107714401Y-82689234D01*
X107852294Y-82947214D01*
X108037866Y-83173334D01*
X108263986Y-83358906D01*
X108318791Y-83388200D01*
X108263986Y-83417494D01*
X108037866Y-83603066D01*
X107852294Y-83829186D01*
X107714401Y-84087166D01*
X107629487Y-84367089D01*
X107600815Y-84658200D01*
X107629487Y-84949311D01*
X107714401Y-85229234D01*
X107852294Y-85487214D01*
X108037866Y-85713334D01*
X108263986Y-85898906D01*
X108521966Y-86036799D01*
X108801889Y-86121713D01*
X109020050Y-86143200D01*
X109165950Y-86143200D01*
X109384111Y-86121713D01*
X109664034Y-86036799D01*
X109922014Y-85898906D01*
X110148134Y-85713334D01*
X110333706Y-85487214D01*
X110389891Y-85382100D01*
X110521760Y-85382100D01*
X110536752Y-85534316D01*
X110586577Y-85698567D01*
X110667488Y-85849942D01*
X110776377Y-85982623D01*
X110909058Y-86091512D01*
X111060433Y-86172423D01*
X111224684Y-86222248D01*
X111395500Y-86239072D01*
X111870500Y-86239072D01*
X112041316Y-86222248D01*
X112205567Y-86172423D01*
X112346655Y-86097011D01*
X112428020Y-86140502D01*
X112547718Y-86176812D01*
X112672200Y-86189072D01*
X113572200Y-86189072D01*
X113696682Y-86176812D01*
X113816380Y-86140502D01*
X113926694Y-86081537D01*
X114023385Y-86002185D01*
X114102737Y-85905494D01*
X114161702Y-85795180D01*
X114198012Y-85675482D01*
X114210272Y-85551000D01*
X114210272Y-85039095D01*
X114221015Y-85052185D01*
X114317706Y-85131537D01*
X114428020Y-85190502D01*
X114547718Y-85226812D01*
X114672200Y-85239072D01*
X115186523Y-85239072D01*
X115510181Y-85562730D01*
X115531740Y-85589000D01*
X115564977Y-85698567D01*
X115645888Y-85849942D01*
X115754777Y-85982623D01*
X115887458Y-86091512D01*
X116038833Y-86172423D01*
X116203084Y-86222248D01*
X116373900Y-86239072D01*
X116848900Y-86239072D01*
X117019716Y-86222248D01*
X117183967Y-86172423D01*
X117335342Y-86091512D01*
X117468023Y-85982623D01*
X117576912Y-85849942D01*
X117603660Y-85799900D01*
X118303347Y-85799900D01*
X118423986Y-85898906D01*
X118681966Y-86036799D01*
X118961889Y-86121713D01*
X119180050Y-86143200D01*
X119325950Y-86143200D01*
X119544111Y-86121713D01*
X119824034Y-86036799D01*
X120082014Y-85898906D01*
X120308134Y-85713334D01*
X120493706Y-85487214D01*
X120631599Y-85229234D01*
X120716513Y-84949311D01*
X120745185Y-84658200D01*
X120716513Y-84367089D01*
X120631599Y-84087166D01*
X120493706Y-83829186D01*
X120308134Y-83603066D01*
X120082014Y-83417494D01*
X120027209Y-83388200D01*
X120082014Y-83358906D01*
X120308134Y-83173334D01*
X120493706Y-82947214D01*
X120631599Y-82689234D01*
X120716513Y-82409311D01*
X120745185Y-82118200D01*
X120716513Y-81827089D01*
X120631599Y-81547166D01*
X120493706Y-81289186D01*
X120308134Y-81063066D01*
X120082014Y-80877494D01*
X120017477Y-80842999D01*
X120134355Y-80773378D01*
X120350588Y-80578469D01*
X120524641Y-80345120D01*
X120649825Y-80082299D01*
X120694476Y-79935090D01*
X120573155Y-79705200D01*
X119380000Y-79705200D01*
X119380000Y-79725200D01*
X119126000Y-79725200D01*
X119126000Y-79705200D01*
X117932845Y-79705200D01*
X117811524Y-79935090D01*
X117856175Y-80082299D01*
X117981359Y-80345120D01*
X118155412Y-80578469D01*
X118227780Y-80643700D01*
X117603660Y-80643700D01*
X117576912Y-80593658D01*
X117493975Y-80492600D01*
X117576912Y-80391542D01*
X117657823Y-80240167D01*
X117707648Y-80075916D01*
X117724472Y-79905100D01*
X117724472Y-79528276D01*
X117887490Y-79365258D01*
X117932845Y-79451200D01*
X119126000Y-79451200D01*
X119126000Y-79431200D01*
X119380000Y-79431200D01*
X119380000Y-79451200D01*
X120573155Y-79451200D01*
X120694476Y-79221310D01*
X120649825Y-79074101D01*
X120524641Y-78811280D01*
X120350588Y-78577931D01*
X120134355Y-78383022D01*
X120017477Y-78313401D01*
X120082014Y-78278906D01*
X120308134Y-78093334D01*
X120493706Y-77867214D01*
X120631599Y-77609234D01*
X120716513Y-77329311D01*
X120745185Y-77038200D01*
X120716513Y-76747089D01*
X120631599Y-76467166D01*
X120493706Y-76209186D01*
X120308134Y-75983066D01*
X120082014Y-75797494D01*
X120027209Y-75768200D01*
X120082014Y-75738906D01*
X120308134Y-75553334D01*
X120493706Y-75327214D01*
X120631599Y-75069234D01*
X120716513Y-74789311D01*
X120745185Y-74498200D01*
X120716513Y-74207089D01*
X120631599Y-73927166D01*
X120493706Y-73669186D01*
X120308134Y-73443066D01*
X120278313Y-73418593D01*
X120347180Y-73397702D01*
X120457494Y-73338737D01*
X120554185Y-73259385D01*
X120633537Y-73162694D01*
X120692502Y-73052380D01*
X120728812Y-72932682D01*
X120741072Y-72808200D01*
X120741072Y-71108200D01*
X120728812Y-70983718D01*
X120692502Y-70864020D01*
X120633537Y-70753706D01*
X120554185Y-70657015D01*
X120457494Y-70577663D01*
X120347180Y-70518698D01*
X120227482Y-70482388D01*
X120103000Y-70470128D01*
X118403000Y-70470128D01*
X118278518Y-70482388D01*
X118158820Y-70518698D01*
X118048506Y-70577663D01*
X117951815Y-70657015D01*
X117872463Y-70753706D01*
X117813498Y-70864020D01*
X117777188Y-70983718D01*
X117764928Y-71108200D01*
X117764928Y-71603900D01*
X117629060Y-71603900D01*
X117602312Y-71553858D01*
X117493423Y-71421177D01*
X117360742Y-71312288D01*
X117209367Y-71231377D01*
X117045116Y-71181552D01*
X116874300Y-71164728D01*
X116399300Y-71164728D01*
X116228484Y-71181552D01*
X116064233Y-71231377D01*
X115912858Y-71312288D01*
X115780177Y-71421177D01*
X115671288Y-71553858D01*
X115590377Y-71705233D01*
X115540552Y-71869484D01*
X115523728Y-72040300D01*
X115523728Y-72113928D01*
X114672200Y-72113928D01*
X114547718Y-72126188D01*
X114428020Y-72162498D01*
X114317706Y-72221463D01*
X114221015Y-72300815D01*
X114210272Y-72313905D01*
X114210272Y-71802000D01*
X114198012Y-71677518D01*
X114161702Y-71557820D01*
X114102737Y-71447506D01*
X114023385Y-71350815D01*
X113926694Y-71271463D01*
X113816380Y-71212498D01*
X113696682Y-71176188D01*
X113572200Y-71163928D01*
X112672200Y-71163928D01*
X112547718Y-71176188D01*
X112428020Y-71212498D01*
X112346655Y-71255989D01*
X112205567Y-71180577D01*
X112041316Y-71130752D01*
X111870500Y-71113928D01*
X111395500Y-71113928D01*
X111224684Y-71130752D01*
X111060433Y-71180577D01*
X110909058Y-71261488D01*
X110776377Y-71370377D01*
X110667488Y-71503058D01*
X110586577Y-71654433D01*
X110581072Y-71672581D01*
X110581072Y-71108200D01*
X110568812Y-70983718D01*
X110532502Y-70864020D01*
X110473537Y-70753706D01*
X110394185Y-70657015D01*
X110297494Y-70577663D01*
X110187180Y-70518698D01*
X110067482Y-70482388D01*
X109943000Y-70470128D01*
X108243000Y-70470128D01*
X108118518Y-70482388D01*
X107998820Y-70518698D01*
X107888506Y-70577663D01*
X107791815Y-70657015D01*
X107712463Y-70753706D01*
X107653498Y-70864020D01*
X107617188Y-70983718D01*
X107604928Y-71108200D01*
X107604928Y-72808200D01*
X107617188Y-72932682D01*
X107653498Y-73052380D01*
X107712463Y-73162694D01*
X107791815Y-73259385D01*
X107888506Y-73338737D01*
X107998820Y-73397702D01*
X108067687Y-73418593D01*
X108037866Y-73443066D01*
X107852294Y-73669186D01*
X107714401Y-73927166D01*
X107629487Y-74207089D01*
X107600815Y-74498200D01*
X106578000Y-74498200D01*
X106578000Y-71863479D01*
X106612072Y-71515990D01*
X106703614Y-71212787D01*
X106852307Y-70933136D01*
X107052484Y-70687695D01*
X107296521Y-70485809D01*
X107575125Y-70335169D01*
X107877688Y-70241510D01*
X108223158Y-70205200D01*
X120033521Y-70205200D01*
X120381010Y-70239272D01*
X120381010Y-70239272D01*
G37*
X120381010Y-70239272D02*
X120684213Y-70330814D01*
X120963864Y-70479507D01*
X121209305Y-70679684D01*
X121411191Y-70923721D01*
X121561831Y-71202325D01*
X121655490Y-71504888D01*
X121691801Y-71850367D01*
X121691800Y-85083121D01*
X121657728Y-85430609D01*
X121566184Y-85733817D01*
X121417493Y-86013463D01*
X121217316Y-86258905D01*
X120973276Y-86460792D01*
X120694675Y-86611431D01*
X120392113Y-86705090D01*
X120046642Y-86741400D01*
X108236279Y-86741400D01*
X107888791Y-86707328D01*
X107585583Y-86615784D01*
X107305937Y-86467093D01*
X107060495Y-86266916D01*
X106858608Y-86022876D01*
X106707969Y-85744275D01*
X106614310Y-85441713D01*
X106578000Y-85096242D01*
X106578000Y-74498200D01*
X107600815Y-74498200D01*
X107629487Y-74789311D01*
X107714401Y-75069234D01*
X107852294Y-75327214D01*
X108037866Y-75553334D01*
X108263986Y-75738906D01*
X108318791Y-75768200D01*
X108263986Y-75797494D01*
X108037866Y-75983066D01*
X107852294Y-76209186D01*
X107714401Y-76467166D01*
X107629487Y-76747089D01*
X107600815Y-77038200D01*
X107629487Y-77329311D01*
X107714401Y-77609234D01*
X107852294Y-77867214D01*
X108037866Y-78093334D01*
X108263986Y-78278906D01*
X108328523Y-78313401D01*
X108211645Y-78383022D01*
X107995412Y-78577931D01*
X107821359Y-78811280D01*
X107696175Y-79074101D01*
X107651524Y-79221310D01*
X107772845Y-79451200D01*
X108966000Y-79451200D01*
X108966000Y-79431200D01*
X109220000Y-79431200D01*
X109220000Y-79451200D01*
X109240000Y-79451200D01*
X109240000Y-79705200D01*
X109220000Y-79705200D01*
X109220000Y-79725200D01*
X108966000Y-79725200D01*
X108966000Y-79705200D01*
X107772845Y-79705200D01*
X107651524Y-79935090D01*
X107696175Y-80082299D01*
X107821359Y-80345120D01*
X107995412Y-80578469D01*
X108211645Y-80773378D01*
X108328523Y-80842999D01*
X108263986Y-80877494D01*
X108037866Y-81063066D01*
X107852294Y-81289186D01*
X107714401Y-81547166D01*
X107629487Y-81827089D01*
X107600815Y-82118200D01*
X107629487Y-82409311D01*
X107714401Y-82689234D01*
X107852294Y-82947214D01*
X108037866Y-83173334D01*
X108263986Y-83358906D01*
X108318791Y-83388200D01*
X108263986Y-83417494D01*
X108037866Y-83603066D01*
X107852294Y-83829186D01*
X107714401Y-84087166D01*
X107629487Y-84367089D01*
X107600815Y-84658200D01*
X107629487Y-84949311D01*
X107714401Y-85229234D01*
X107852294Y-85487214D01*
X108037866Y-85713334D01*
X108263986Y-85898906D01*
X108521966Y-86036799D01*
X108801889Y-86121713D01*
X109020050Y-86143200D01*
X109165950Y-86143200D01*
X109384111Y-86121713D01*
X109664034Y-86036799D01*
X109922014Y-85898906D01*
X110148134Y-85713334D01*
X110333706Y-85487214D01*
X110389891Y-85382100D01*
X110521760Y-85382100D01*
X110536752Y-85534316D01*
X110586577Y-85698567D01*
X110667488Y-85849942D01*
X110776377Y-85982623D01*
X110909058Y-86091512D01*
X111060433Y-86172423D01*
X111224684Y-86222248D01*
X111395500Y-86239072D01*
X111870500Y-86239072D01*
X112041316Y-86222248D01*
X112205567Y-86172423D01*
X112346655Y-86097011D01*
X112428020Y-86140502D01*
X112547718Y-86176812D01*
X112672200Y-86189072D01*
X113572200Y-86189072D01*
X113696682Y-86176812D01*
X113816380Y-86140502D01*
X113926694Y-86081537D01*
X114023385Y-86002185D01*
X114102737Y-85905494D01*
X114161702Y-85795180D01*
X114198012Y-85675482D01*
X114210272Y-85551000D01*
X114210272Y-85039095D01*
X114221015Y-85052185D01*
X114317706Y-85131537D01*
X114428020Y-85190502D01*
X114547718Y-85226812D01*
X114672200Y-85239072D01*
X115186523Y-85239072D01*
X115510181Y-85562730D01*
X115531740Y-85589000D01*
X115564977Y-85698567D01*
X115645888Y-85849942D01*
X115754777Y-85982623D01*
X115887458Y-86091512D01*
X116038833Y-86172423D01*
X116203084Y-86222248D01*
X116373900Y-86239072D01*
X116848900Y-86239072D01*
X117019716Y-86222248D01*
X117183967Y-86172423D01*
X117335342Y-86091512D01*
X117468023Y-85982623D01*
X117576912Y-85849942D01*
X117603660Y-85799900D01*
X118303347Y-85799900D01*
X118423986Y-85898906D01*
X118681966Y-86036799D01*
X118961889Y-86121713D01*
X119180050Y-86143200D01*
X119325950Y-86143200D01*
X119544111Y-86121713D01*
X119824034Y-86036799D01*
X120082014Y-85898906D01*
X120308134Y-85713334D01*
X120493706Y-85487214D01*
X120631599Y-85229234D01*
X120716513Y-84949311D01*
X120745185Y-84658200D01*
X120716513Y-84367089D01*
X120631599Y-84087166D01*
X120493706Y-83829186D01*
X120308134Y-83603066D01*
X120082014Y-83417494D01*
X120027209Y-83388200D01*
X120082014Y-83358906D01*
X120308134Y-83173334D01*
X120493706Y-82947214D01*
X120631599Y-82689234D01*
X120716513Y-82409311D01*
X120745185Y-82118200D01*
X120716513Y-81827089D01*
X120631599Y-81547166D01*
X120493706Y-81289186D01*
X120308134Y-81063066D01*
X120082014Y-80877494D01*
X120017477Y-80842999D01*
X120134355Y-80773378D01*
X120350588Y-80578469D01*
X120524641Y-80345120D01*
X120649825Y-80082299D01*
X120694476Y-79935090D01*
X120573155Y-79705200D01*
X119380000Y-79705200D01*
X119380000Y-79725200D01*
X119126000Y-79725200D01*
X119126000Y-79705200D01*
X117932845Y-79705200D01*
X117811524Y-79935090D01*
X117856175Y-80082299D01*
X117981359Y-80345120D01*
X118155412Y-80578469D01*
X118227780Y-80643700D01*
X117603660Y-80643700D01*
X117576912Y-80593658D01*
X117493975Y-80492600D01*
X117576912Y-80391542D01*
X117657823Y-80240167D01*
X117707648Y-80075916D01*
X117724472Y-79905100D01*
X117724472Y-79528276D01*
X117887490Y-79365258D01*
X117932845Y-79451200D01*
X119126000Y-79451200D01*
X119126000Y-79431200D01*
X119380000Y-79431200D01*
X119380000Y-79451200D01*
X120573155Y-79451200D01*
X120694476Y-79221310D01*
X120649825Y-79074101D01*
X120524641Y-78811280D01*
X120350588Y-78577931D01*
X120134355Y-78383022D01*
X120017477Y-78313401D01*
X120082014Y-78278906D01*
X120308134Y-78093334D01*
X120493706Y-77867214D01*
X120631599Y-77609234D01*
X120716513Y-77329311D01*
X120745185Y-77038200D01*
X120716513Y-76747089D01*
X120631599Y-76467166D01*
X120493706Y-76209186D01*
X120308134Y-75983066D01*
X120082014Y-75797494D01*
X120027209Y-75768200D01*
X120082014Y-75738906D01*
X120308134Y-75553334D01*
X120493706Y-75327214D01*
X120631599Y-75069234D01*
X120716513Y-74789311D01*
X120745185Y-74498200D01*
X120716513Y-74207089D01*
X120631599Y-73927166D01*
X120493706Y-73669186D01*
X120308134Y-73443066D01*
X120278313Y-73418593D01*
X120347180Y-73397702D01*
X120457494Y-73338737D01*
X120554185Y-73259385D01*
X120633537Y-73162694D01*
X120692502Y-73052380D01*
X120728812Y-72932682D01*
X120741072Y-72808200D01*
X120741072Y-71108200D01*
X120728812Y-70983718D01*
X120692502Y-70864020D01*
X120633537Y-70753706D01*
X120554185Y-70657015D01*
X120457494Y-70577663D01*
X120347180Y-70518698D01*
X120227482Y-70482388D01*
X120103000Y-70470128D01*
X118403000Y-70470128D01*
X118278518Y-70482388D01*
X118158820Y-70518698D01*
X118048506Y-70577663D01*
X117951815Y-70657015D01*
X117872463Y-70753706D01*
X117813498Y-70864020D01*
X117777188Y-70983718D01*
X117764928Y-71108200D01*
X117764928Y-71603900D01*
X117629060Y-71603900D01*
X117602312Y-71553858D01*
X117493423Y-71421177D01*
X117360742Y-71312288D01*
X117209367Y-71231377D01*
X117045116Y-71181552D01*
X116874300Y-71164728D01*
X116399300Y-71164728D01*
X116228484Y-71181552D01*
X116064233Y-71231377D01*
X115912858Y-71312288D01*
X115780177Y-71421177D01*
X115671288Y-71553858D01*
X115590377Y-71705233D01*
X115540552Y-71869484D01*
X115523728Y-72040300D01*
X115523728Y-72113928D01*
X114672200Y-72113928D01*
X114547718Y-72126188D01*
X114428020Y-72162498D01*
X114317706Y-72221463D01*
X114221015Y-72300815D01*
X114210272Y-72313905D01*
X114210272Y-71802000D01*
X114198012Y-71677518D01*
X114161702Y-71557820D01*
X114102737Y-71447506D01*
X114023385Y-71350815D01*
X113926694Y-71271463D01*
X113816380Y-71212498D01*
X113696682Y-71176188D01*
X113572200Y-71163928D01*
X112672200Y-71163928D01*
X112547718Y-71176188D01*
X112428020Y-71212498D01*
X112346655Y-71255989D01*
X112205567Y-71180577D01*
X112041316Y-71130752D01*
X111870500Y-71113928D01*
X111395500Y-71113928D01*
X111224684Y-71130752D01*
X111060433Y-71180577D01*
X110909058Y-71261488D01*
X110776377Y-71370377D01*
X110667488Y-71503058D01*
X110586577Y-71654433D01*
X110581072Y-71672581D01*
X110581072Y-71108200D01*
X110568812Y-70983718D01*
X110532502Y-70864020D01*
X110473537Y-70753706D01*
X110394185Y-70657015D01*
X110297494Y-70577663D01*
X110187180Y-70518698D01*
X110067482Y-70482388D01*
X109943000Y-70470128D01*
X108243000Y-70470128D01*
X108118518Y-70482388D01*
X107998820Y-70518698D01*
X107888506Y-70577663D01*
X107791815Y-70657015D01*
X107712463Y-70753706D01*
X107653498Y-70864020D01*
X107617188Y-70983718D01*
X107604928Y-71108200D01*
X107604928Y-72808200D01*
X107617188Y-72932682D01*
X107653498Y-73052380D01*
X107712463Y-73162694D01*
X107791815Y-73259385D01*
X107888506Y-73338737D01*
X107998820Y-73397702D01*
X108067687Y-73418593D01*
X108037866Y-73443066D01*
X107852294Y-73669186D01*
X107714401Y-73927166D01*
X107629487Y-74207089D01*
X107600815Y-74498200D01*
X106578000Y-74498200D01*
X106578000Y-71863479D01*
X106612072Y-71515990D01*
X106703614Y-71212787D01*
X106852307Y-70933136D01*
X107052484Y-70687695D01*
X107296521Y-70485809D01*
X107575125Y-70335169D01*
X107877688Y-70241510D01*
X108223158Y-70205200D01*
X120033521Y-70205200D01*
X120381010Y-70239272D01*
M02*
